<svg width="233" height="45" viewBox="0 0 233 45" fill="none" xmlns="http://www.w3.org/2000/svg">
<path fill-rule="evenodd" clip-rule="evenodd" d="M28.785 1.19827C46.7227 -1.76456 35.2647 14.9714 29.6542 19.6158C33.5262 22.8189 37.3983 27.3032 39.0577 32.4281C42.2185 41.797 34.5535 43.1583 28.785 40.8361C22.5423 38.4338 16.9318 33.2288 13.2969 27.143C12.2696 27.143 11.0843 26.9829 10.057 26.6626C12.1906 33.0687 13.0598 39.6349 12.5067 45.0001C12.0487 33.8272 7.99698 23.1128 0.969633 14.491C-1.40099 11.448 1.04865 9.04576 3.26124 12.0887C4.68361 14.3308 6.02697 16.5729 7.21228 18.9752C9.50389 10.0868 20.9619 2.39941 28.785 1.19827ZM26.2563 17.1335C29.7332 14.8113 40.401 2.23926 30.4444 3.36033C24.7549 4.08102 17.8011 9.84652 14.9563 13.6101C18.9074 13.0496 23.0165 14.9714 26.2563 17.1335ZM14.8773 16.3327C17.564 16.0925 20.4878 17.6139 22.7794 19.2155C20.5668 20.3365 18.1962 20.9771 15.7465 21.2174C12.1116 21.2174 11.3214 16.653 14.8773 16.3327ZM16.3787 26.8227C19.5395 30.6664 23.9647 34.5101 28.6269 35.8714C31.3927 36.6721 34.3955 36.3518 33.2892 32.1078C32.1829 28.184 29.2591 24.7407 26.4934 22.1783C26.4221 22.2288 26.3502 22.28 26.2778 22.3316C25.5464 22.8524 24.7556 23.4155 23.9647 23.7798C21.5941 25.2212 18.9864 26.2622 16.3787 26.8227Z" fill="#F5A623"/>
<path fill-rule="evenodd" clip-rule="evenodd" d="M74.1858 7.6416H74.2653C74.7426 7.6416 74.9813 7.95823 74.9813 8.51234V30.914C74.9813 31.3098 74.7426 31.7056 74.2653 31.7056C73.8676 31.7056 73.5494 31.3889 73.5494 30.914V8.35402C73.5494 7.95823 73.788 7.6416 74.1858 7.6416ZM54.2976 8.74981H67.9807C68.458 9.06644 68.6967 9.38307 68.6967 9.62055C68.6967 10.0163 68.458 10.4121 67.9807 10.4121H55.0136V19.8319H66.7078C67.1056 19.8319 67.4238 20.0694 67.4238 20.5443C67.4238 20.9401 67.1852 21.3359 66.7078 21.3359H55.0932V30.9931C55.0136 31.4681 54.6159 31.8639 54.2181 31.8639C53.7408 31.8639 53.343 31.4681 53.343 30.9931V9.62055H53.4226C53.4226 9.1456 53.8203 8.74981 54.2976 8.74981ZM94.0739 15.7157C94.0739 15.2407 93.7557 14.9241 93.3579 14.9241C92.8806 14.9241 92.642 15.3199 92.642 15.7157V25.1355C92.642 28.3018 90.1758 30.8348 87.1528 30.7557C83.9707 30.7557 82.141 28.5393 82.141 25.0563V15.7157C82.141 15.2407 81.8228 14.9241 81.4251 14.9241C81.1068 14.9241 80.7091 15.3199 80.7091 15.7157V25.2938C80.7091 29.2517 83.0957 32.1805 86.9937 32.1805C89.3803 32.2597 91.6078 30.914 92.7215 28.6976V31.1515C92.7215 31.6264 93.1193 31.8639 93.4375 31.8639C93.9148 31.8639 94.1535 31.4681 94.1535 31.1515H94.0739V15.7157ZM107.916 15.7949C107.916 16.1906 107.518 16.5073 107.2 16.5073H102.188V27.2727C102.188 29.6475 103.461 30.5182 105.37 30.5182C106.007 30.5182 106.643 30.439 107.2 30.2807C107.518 30.2807 107.836 30.5182 107.836 30.914C107.836 31.2306 107.598 31.4681 107.359 31.6264C106.643 31.8639 105.848 32.0222 105.052 32.0222C102.745 32.0222 100.756 30.5182 100.756 27.431V16.5073H99.0062C98.6084 16.5073 98.2902 16.1115 98.2902 15.7157C98.2902 15.3199 98.6084 15.0824 99.0062 15.0824H100.756V10.4121C100.756 10.0163 100.995 9.62055 101.393 9.62055H101.472C101.79 9.62055 102.188 10.0163 102.188 10.4121V15.0824H107.2C107.518 15.0824 107.916 15.4782 107.916 15.7949ZM119.531 16.5073C119.928 16.5073 120.247 16.1906 120.247 15.7949C120.247 15.4782 119.928 15.0824 119.531 15.0824H114.519V10.4121C114.519 10.0163 114.201 9.62055 113.803 9.62055H113.723C113.326 9.62055 113.087 10.0163 113.087 10.4121V15.0824H111.337C111.019 15.0824 110.621 15.3199 110.621 15.7157C110.621 16.1115 111.019 16.5073 111.337 16.5073H113.087V27.431C113.087 30.5182 115.076 32.0222 117.462 32.0222C118.178 32.0222 118.974 31.8639 119.69 31.6264C120.008 31.4681 120.167 31.2306 120.167 30.914C120.167 30.5182 119.928 30.2807 119.531 30.2807C118.974 30.439 118.337 30.5182 117.701 30.5182C115.792 30.5182 114.519 29.6475 114.519 27.2727V16.5073H119.531ZM123.031 23.394C123.031 18.4071 126.213 14.6075 130.429 14.6075C134.884 14.6075 137.748 18.4071 137.748 23.394C137.748 23.7898 137.35 24.1856 137.032 24.1856H124.622C124.94 28.3018 127.725 30.7557 130.827 30.7557C132.788 30.7267 134.642 29.862 135.919 28.3809L136.396 28.2226C136.714 28.2226 137.112 28.6184 137.112 29.0142C137.112 29.1725 137.032 29.41 136.794 29.5683C135.282 31.3889 132.975 32.3388 130.748 32.2597C126.531 32.2597 123.031 28.7767 123.031 23.4732V23.394ZM124.543 22.6024C124.781 18.9612 127.247 16.1115 130.35 16.1115C133.93 16.1115 135.839 19.1986 135.998 22.6024H124.543ZM143.635 19.9111C144.669 17.0614 147.056 15.0824 149.92 14.845C150.397 14.845 150.715 15.2407 150.715 15.7949C150.715 16.1906 150.477 16.6656 149.999 16.6656H149.92C146.579 17.0614 143.635 19.6736 143.635 25.1355V31.3098C143.556 31.7847 143.237 32.1014 142.84 32.1014C142.442 32.1014 142.124 31.7056 142.124 31.3098V15.7949C142.203 15.3199 142.442 15.0824 142.919 15.0824C143.237 15.0824 143.635 15.4782 143.635 15.7949V19.9111Z" fill="black"/>
<path fill-rule="evenodd" clip-rule="evenodd" d="M224.055 13.5902C219.212 13.5902 215.877 18.0015 215.877 23.346V24.1943C216.036 29.3691 220.006 33.3562 224.532 33.1017C226.596 33.1017 228.581 32.3382 230.249 30.8112C230.725 30.3871 230.884 29.8781 230.884 29.2843V29.1994C230.884 28.0118 230.09 27.0786 229.057 27.0786C228.66 27.0786 228.263 27.1634 227.946 27.5028C227.02 28.3542 225.832 28.8077 224.611 28.7753C222.626 28.8601 220.879 27.3331 220.641 25.0426H229.931C231.122 24.9578 232.075 23.7701 231.995 22.4128V21.9886C231.995 17.4077 228.422 13.4205 224.055 13.5902ZM174.191 15.7958C174.429 14.6082 175.382 13.7599 176.414 13.7599C177.605 13.7599 178.558 14.7778 178.558 16.1352V16.22L178.32 17.238L174.27 30.7264C173.953 32.1686 172.92 33.1017 171.65 33.1017H171.412C170.221 33.1017 169.189 32.1686 168.871 30.8112L166.251 21.31L163.63 30.8112C163.233 32.1686 162.281 33.1017 161.09 33.1017H160.931C159.66 33.0169 158.628 32.0837 158.31 30.7264L154.261 17.4077L154.102 16.1352C154.102 14.7778 154.976 13.675 156.167 13.675H156.246C157.358 13.675 158.231 14.6082 158.549 15.711L161.09 25.2971L163.71 15.7958C163.948 14.4385 164.98 13.675 166.171 13.675H166.409C167.6 13.675 168.633 14.6082 168.871 15.7958L171.491 25.4668L174.191 15.7958ZM182.766 14.693C184.513 14.0992 186.26 13.675 188.086 13.7599C190.627 13.7599 192.453 14.6082 193.803 15.9655C195.074 17.5773 195.709 19.783 195.629 21.9038V30.3871C195.629 31.8292 194.597 33.0169 193.327 33.0169C192.136 33.0169 191.183 32.0837 191.103 30.7264C189.833 32.2534 188.007 33.1866 186.101 33.1017C183.084 33.1017 180.464 30.9809 180.464 27.3331C180.464 23.1763 183.163 21.2251 187.054 21.2251C188.404 21.2251 189.833 21.3948 191.103 21.9038V21.6493C191.103 19.3588 189.912 18.1712 187.53 18.1712C186.419 18.1712 185.307 18.3408 184.275 18.6802C184.037 18.8498 183.798 18.8498 183.64 18.8498C182.528 18.9347 181.655 18.0015 181.655 16.729C181.655 15.7958 182.052 15.0323 182.766 14.693ZM191.183 26.0606C191.183 28.0966 189.595 29.3691 187.451 29.2843C185.942 29.2843 184.91 28.4359 184.91 26.9938V26.9089C184.91 25.2971 186.181 24.2791 188.166 24.2791C189.118 24.2791 190.23 24.6184 191.183 25.0426V26.0606ZM209.604 15.5413C209.842 14.3537 210.795 13.675 211.748 13.675C213.098 13.675 214.051 14.7778 214.051 16.1352V16.22L213.812 17.4925L208.889 30.8112C208.413 32.1686 207.301 33.0169 206.19 33.1017H205.872C204.602 33.0169 203.57 32.0837 203.252 30.7264L198.17 17.4077C198.011 16.9835 197.853 16.5593 197.853 16.1352C198.011 14.693 198.964 13.675 200.155 13.675C201.267 13.675 202.14 14.4385 202.458 15.6262L205.952 26.4848L209.604 15.5413ZM224.055 17.9167C222.15 17.9167 220.879 19.4436 220.482 21.9038H227.469C227.231 19.5285 225.961 17.9167 224.055 17.9167Z" fill="black"/>
<path d="M224.055 13.5902V14.0902H224.065L224.075 14.0898L224.055 13.5902ZM215.877 24.1943H215.377V24.202L215.377 24.2096L215.877 24.1943ZM224.532 33.1017V32.6017H224.518L224.504 32.6025L224.532 33.1017ZM230.249 30.8112L229.916 30.4378L229.911 30.4425L230.249 30.8112ZM227.946 27.5028L228.284 27.8707L228.298 27.8581L228.311 27.8444L227.946 27.5028ZM224.611 28.7753L224.624 28.2754L224.607 28.275L224.59 28.2757L224.611 28.7753ZM220.641 25.0426V24.5426H220.086L220.144 25.0943L220.641 25.0426ZM229.931 25.0426V25.5426H229.949L229.966 25.5413L229.931 25.0426ZM231.995 22.4128H231.495V22.4274L231.496 22.442L231.995 22.4128ZM174.191 15.7958L174.672 15.9303L174.677 15.9124L174.681 15.8942L174.191 15.7958ZM178.558 16.22L179.045 16.3339L179.058 16.2777V16.22H178.558ZM178.32 17.238L178.799 17.3818L178.803 17.367L178.807 17.3519L178.32 17.238ZM174.27 30.7264L173.791 30.5826L173.786 30.6006L173.782 30.6189L174.27 30.7264ZM168.871 30.8112L169.358 30.6973L169.356 30.6878L169.353 30.6783L168.871 30.8112ZM166.251 21.31L166.733 21.177L166.251 19.4292L165.769 21.177L166.251 21.31ZM163.63 30.8112L164.11 30.9516L164.112 30.9442L163.63 30.8112ZM160.931 33.1017L160.897 33.6006L160.914 33.6017H160.931V33.1017ZM158.31 30.7264L158.797 30.6125L158.794 30.5966L158.789 30.581L158.31 30.7264ZM154.261 17.4077L153.765 17.4696L153.77 17.5121L153.783 17.5531L154.261 17.4077ZM154.102 16.1352H153.602V16.1662L153.606 16.1971L154.102 16.1352ZM158.549 15.711L159.032 15.5829L159.029 15.5726L158.549 15.711ZM161.09 25.2971L160.606 25.4252L161.08 27.2125L161.572 25.43L161.09 25.2971ZM163.71 15.7958L164.192 15.9288L164.198 15.9058L164.202 15.8823L163.71 15.7958ZM168.871 15.7958L168.381 15.8942L168.384 15.9105L168.388 15.9266L168.871 15.7958ZM171.491 25.4668L171.009 25.5975L171.484 27.3522L171.973 25.6012L171.491 25.4668ZM188.086 13.7599L188.063 14.2593L188.075 14.2599H188.086V13.7599ZM182.766 14.693L182.605 14.2196L182.578 14.2289L182.552 14.2413L182.766 14.693ZM193.803 15.9655L194.196 15.656L194.178 15.6334L194.158 15.6129L193.803 15.9655ZM195.629 21.9038L195.13 21.8851L195.129 21.8944V21.9038H195.629ZM191.103 30.7264L191.603 30.6972L191.529 29.4335L190.719 30.4066L191.103 30.7264ZM186.101 33.1017L186.123 32.6022L186.112 32.6017H186.101V33.1017ZM191.103 21.9038L190.917 22.3679L191.603 22.6428V21.9038H191.103ZM184.275 18.6802L184.119 18.2052L184.047 18.2289L183.985 18.2729L184.275 18.6802ZM183.64 18.8498V18.3498H183.621L183.602 18.3513L183.64 18.8498ZM187.451 29.2843L187.471 28.7846L187.461 28.7843H187.451V29.2843ZM191.183 25.0426H191.683V24.7179L191.386 24.5858L191.183 25.0426ZM209.604 15.5413L210.078 15.6996L210.088 15.6701L210.094 15.6397L209.604 15.5413ZM214.051 16.22L214.542 16.312L214.551 16.2664V16.22H214.051ZM213.812 17.4925L214.281 17.6658L214.296 17.6261L214.304 17.5845L213.812 17.4925ZM208.889 30.8112L208.42 30.6379L208.418 30.6456L208.889 30.8112ZM206.19 33.1017V33.6017H206.209L206.228 33.6003L206.19 33.1017ZM205.872 33.1017L205.839 33.6006L205.855 33.6017H205.872V33.1017ZM203.252 30.7264L203.739 30.6125L203.731 30.5797L203.719 30.5482L203.252 30.7264ZM198.17 17.4077L197.702 17.583L197.703 17.5859L198.17 17.4077ZM197.853 16.1352L197.356 16.0804L197.353 16.1077V16.1352H197.853ZM202.458 15.6262L201.975 15.7553L201.978 15.7674L201.982 15.7793L202.458 15.6262ZM205.952 26.4848L205.476 26.6379L205.943 28.0902L206.426 26.6431L205.952 26.4848ZM220.482 21.9038L219.988 21.8241L219.895 22.4038H220.482V21.9038ZM227.469 21.9038V22.4038H228.022L227.967 21.8539L227.469 21.9038ZM216.377 23.346C216.377 18.1757 219.58 14.0902 224.055 14.0902V13.0902C218.844 13.0902 215.377 17.8273 215.377 23.346H216.377ZM216.377 24.1943V23.346H215.377V24.1943H216.377ZM224.504 32.6025C220.308 32.8384 216.528 29.1256 216.377 24.1789L215.377 24.2096C215.543 29.6125 219.703 33.874 224.56 33.6009L224.504 32.6025ZM229.911 30.4425C228.332 31.8884 226.466 32.6017 224.532 32.6017V33.6017C226.726 33.6017 228.83 32.7881 230.586 31.18L229.911 30.4425ZM230.384 29.2843C230.384 29.7738 230.26 30.1314 229.916 30.4378L230.581 31.1847C231.19 30.6428 231.384 29.9823 231.384 29.2843H230.384ZM230.384 29.1994V29.2843H231.384V29.1994H230.384ZM229.057 27.5786C229.744 27.5786 230.384 28.2133 230.384 29.1994H231.384C231.384 27.8102 230.435 26.5786 229.057 26.5786V27.5786ZM228.311 27.8444C228.496 27.6462 228.732 27.5786 229.057 27.5786V26.5786C228.589 26.5786 228.031 26.6806 227.581 27.1611L228.311 27.8444ZM224.598 29.2751C225.953 29.3111 227.266 28.8073 228.284 27.8707L227.607 27.1348C226.774 27.9011 225.711 28.3043 224.624 28.2754L224.598 29.2751ZM220.144 25.0943C220.406 27.6185 222.355 29.3721 224.632 29.2748L224.59 28.2757C222.897 28.348 221.352 27.0477 221.138 24.9909L220.144 25.0943ZM229.931 24.5426H220.641V25.5426H229.931V24.5426ZM231.496 22.442C231.563 23.5758 230.766 24.4818 229.895 24.5439L229.966 25.5413C231.478 25.4337 232.587 23.9644 232.494 22.3836L231.496 22.442ZM231.495 21.9886V22.4128H232.495V21.9886H231.495ZM224.075 14.0898C228.106 13.9332 231.495 17.6362 231.495 21.9886H232.495C232.495 17.1791 228.739 12.9079 224.036 13.0906L224.075 14.0898ZM176.414 13.2599C175.101 13.2599 173.977 14.3206 173.701 15.6975L174.681 15.8942C174.881 14.8958 175.663 14.2599 176.414 14.2599V13.2599ZM179.058 16.1352C179.058 14.5457 177.923 13.2599 176.414 13.2599V14.2599C177.287 14.2599 178.058 15.01 178.058 16.1352H179.058ZM179.058 16.22V16.1352H178.058V16.22H179.058ZM178.807 17.3519L179.045 16.3339L178.071 16.1061L177.833 17.1241L178.807 17.3519ZM174.749 30.8702L178.799 17.3818L177.841 17.0942L173.791 30.5826L174.749 30.8702ZM171.65 33.6017C173.204 33.6017 174.402 32.4542 174.759 30.8339L173.782 30.6189C173.504 31.8829 172.637 32.6017 171.65 32.6017V33.6017ZM171.412 33.6017H171.65V32.6017H171.412V33.6017ZM168.384 30.9252C168.742 32.4539 169.937 33.6017 171.412 33.6017V32.6017C170.505 32.6017 169.635 31.8832 169.358 30.6973L168.384 30.9252ZM165.769 21.4429L168.389 30.9442L169.353 30.6783L166.733 21.177L165.769 21.4429ZM164.112 30.9442L166.733 21.4429L165.769 21.177L163.148 30.6783L164.112 30.9442ZM161.09 33.6017C162.582 33.6017 163.676 32.435 164.11 30.9516L163.15 30.6709C162.79 31.9021 161.979 32.6017 161.09 32.6017V33.6017ZM160.931 33.6017H161.09V32.6017H160.931V33.6017ZM157.824 30.8403C158.185 32.3852 159.382 33.4994 160.897 33.6006L160.964 32.6028C159.939 32.5344 159.071 31.7823 158.797 30.6125L157.824 30.8403ZM153.783 17.5531L157.832 30.8719L158.789 30.581L154.739 17.2622L153.783 17.5531ZM153.606 16.1971L153.765 17.4696L154.757 17.3457L154.598 16.0733L153.606 16.1971ZM156.167 13.175C154.614 13.175 153.602 14.5963 153.602 16.1352H154.602C154.602 14.9594 155.338 14.175 156.167 14.175V13.175ZM156.246 13.175H156.167V14.175H156.246V13.175ZM159.029 15.5726C158.676 14.347 157.663 13.175 156.246 13.175V14.175C157.052 14.175 157.786 14.8694 158.068 15.8494L159.029 15.5726ZM161.573 25.169L159.032 15.5829L158.065 15.8391L160.606 25.4252L161.573 25.169ZM163.228 15.6629L160.608 25.1642L161.572 25.43L164.192 15.9288L163.228 15.6629ZM166.171 13.175C164.745 13.175 163.499 14.1058 163.217 15.7094L164.202 15.8823C164.397 14.7712 165.216 14.175 166.171 14.175V13.175ZM166.409 13.175H166.171V14.175H166.409V13.175ZM169.361 15.6975C169.082 14.3038 167.866 13.175 166.409 13.175V14.175C167.335 14.175 168.184 14.9126 168.381 15.8942L169.361 15.6975ZM171.974 25.336L169.354 15.6651L168.388 15.9266L171.009 25.5975L171.974 25.336ZM173.709 15.6614L171.01 25.3323L171.973 25.6012L174.672 15.9303L173.709 15.6614ZM188.109 13.2604C186.192 13.1713 184.376 13.6178 182.605 14.2196L182.927 15.1664C184.65 14.5806 186.328 14.1787 188.063 14.2593L188.109 13.2604ZM194.158 15.6129C192.709 14.1565 190.753 13.2599 188.086 13.2599V14.2599C190.501 14.2599 192.197 15.0599 193.449 16.3181L194.158 15.6129ZM196.129 21.9225C196.212 19.6988 195.549 17.3727 194.196 15.656L193.41 16.275C194.598 17.7819 195.205 19.8672 195.13 21.8851L196.129 21.9225ZM196.129 30.3871V21.9038H195.129V30.3871H196.129ZM193.327 33.5169C194.935 33.5169 196.129 32.0398 196.129 30.3871H195.129C195.129 31.6187 194.26 32.5169 193.327 32.5169V33.5169ZM190.604 30.7556C190.697 32.3431 191.838 33.5169 193.327 33.5169V32.5169C192.433 32.5169 191.669 31.8244 191.603 30.6972L190.604 30.7556ZM186.079 33.6012C188.166 33.6941 190.135 32.6726 191.488 31.0462L190.719 30.4066C189.531 31.8342 187.848 32.679 186.123 32.6022L186.079 33.6012ZM179.964 27.3331C179.964 29.2834 180.667 30.8595 181.805 31.9469C182.939 33.03 184.476 33.6017 186.101 33.6017V32.6017C184.709 32.6017 183.427 32.1131 182.496 31.2238C181.57 30.3388 180.964 29.0306 180.964 27.3331H179.964ZM187.054 20.7251C185.032 20.7251 183.253 21.2319 181.972 22.3426C180.68 23.4633 179.964 25.1403 179.964 27.3331H180.964C180.964 25.3691 181.597 23.9921 182.627 23.098C183.669 22.194 185.185 21.7251 187.054 21.7251V20.7251ZM191.289 21.4397C189.939 20.8985 188.44 20.7251 187.054 20.7251V21.7251C188.368 21.7251 189.727 21.8911 190.917 22.3679L191.289 21.4397ZM190.603 21.6493V21.9038H191.603V21.6493H190.603ZM187.53 18.6712C188.645 18.6712 189.391 18.9487 189.86 19.4085C190.328 19.8665 190.603 20.5861 190.603 21.6493H191.603C191.603 20.422 191.283 19.4026 190.56 18.6941C189.838 17.9874 188.798 17.6712 187.53 17.6712V18.6712ZM184.431 19.1551C185.41 18.8333 186.469 18.6712 187.53 18.6712V17.6712C186.369 17.6712 185.204 17.8483 184.119 18.2052L184.431 19.1551ZM183.64 19.3498C183.805 19.3498 184.187 19.3563 184.565 19.0874L183.985 18.2729C183.886 18.3434 183.792 18.3498 183.64 18.3498V19.3498ZM181.155 16.729C181.155 18.2206 182.209 19.4605 183.678 19.3484L183.602 18.3513C182.847 18.4088 182.155 17.7824 182.155 16.729H181.155ZM182.552 14.2413C181.616 14.6857 181.155 15.6605 181.155 16.729H182.155C182.155 15.9311 182.487 15.379 182.981 15.1447L182.552 14.2413ZM187.431 29.7839C188.605 29.8303 189.667 29.5062 190.444 28.8496C191.227 28.1875 191.683 27.2178 191.683 26.0606H190.683C190.683 26.9394 190.345 27.6239 189.798 28.0859C189.245 28.5533 188.441 28.823 187.471 28.7846L187.431 29.7839ZM184.41 26.9938C184.41 27.8421 184.718 28.5578 185.285 29.0555C185.844 29.5463 186.606 29.7843 187.451 29.7843V28.7843C186.787 28.7843 186.279 28.598 185.945 28.3042C185.618 28.0172 185.41 27.5876 185.41 26.9938H184.41ZM184.41 26.9089V26.9938H185.41V26.9089H184.41ZM188.166 23.7791C187.093 23.7791 186.158 24.054 185.48 24.6003C184.79 25.1558 184.41 25.9593 184.41 26.9089H185.41C185.41 26.2468 185.665 25.7353 186.107 25.3789C186.561 25.0133 187.253 24.7791 188.166 24.7791V23.7791ZM191.386 24.5858C190.405 24.1492 189.219 23.7791 188.166 23.7791V24.7791C189.017 24.7791 190.055 25.0877 190.979 25.4994L191.386 24.5858ZM191.683 26.0606V25.0426H190.683V26.0606H191.683ZM211.748 13.175C210.556 13.175 209.399 14.023 209.114 15.443L210.094 15.6397C210.286 14.6843 211.035 14.175 211.748 14.175V13.175ZM214.551 16.1352C214.551 14.5451 213.415 13.175 211.748 13.175V14.175C212.78 14.175 213.551 15.0106 213.551 16.1352H214.551ZM214.551 16.22V16.1352H213.551V16.22H214.551ZM214.304 17.5845L214.542 16.312L213.559 16.128L213.321 17.4005L214.304 17.5845ZM209.358 30.9846L214.281 17.6658L213.343 17.3191L208.42 30.6379L209.358 30.9846ZM206.228 33.6003C207.564 33.4983 208.828 32.495 209.361 30.9768L208.418 30.6456C207.998 31.8422 207.039 32.5355 206.152 32.6032L206.228 33.6003ZM205.872 33.6017H206.19V32.6017H205.872V33.6017ZM202.765 30.8403C203.127 32.3852 204.323 33.4994 205.839 33.6006L205.905 32.6028C204.88 32.5344 204.012 31.7823 203.739 30.6125L202.765 30.8403ZM197.703 17.5859L202.785 30.9046L203.719 30.5482L198.637 17.2294L197.703 17.5859ZM197.353 16.1352C197.353 16.6665 197.55 17.1784 197.702 17.583L198.638 17.2323C198.472 16.7886 198.353 16.4522 198.353 16.1352H197.353ZM200.155 13.175C198.635 13.175 197.533 14.4668 197.356 16.0804L198.35 16.1899C198.489 14.9192 199.294 14.175 200.155 14.175V13.175ZM202.941 15.497C202.577 14.1347 201.536 13.175 200.155 13.175V14.175C200.998 14.175 201.704 14.7423 201.975 15.7553L202.941 15.497ZM206.428 26.3316L202.934 15.473L201.982 15.7793L205.476 26.6379L206.428 26.3316ZM209.13 15.383L205.477 26.3265L206.426 26.6431L210.078 15.6996L209.13 15.383ZM220.976 21.9835C221.164 20.8138 221.554 19.9151 222.079 19.3176C222.593 18.7323 223.252 18.4167 224.055 18.4167V17.4167C222.953 17.4167 222.024 17.8645 221.327 18.6577C220.641 19.4388 220.197 20.5336 219.988 21.8241L220.976 21.9835ZM227.469 21.4038H220.482V22.4038H227.469V21.4038ZM224.055 18.4167C224.851 18.4167 225.508 18.7473 226.004 19.3403C226.509 19.9439 226.86 20.8372 226.972 21.9537L227.967 21.8539C227.841 20.5951 227.437 19.4948 226.771 18.6986C226.096 17.892 225.165 17.4167 224.055 17.4167V18.4167Z" fill="black"/>
</svg>
