<svg width="191" height="52" viewBox="0 0 191 52" fill="none" xmlns="http://www.w3.org/2000/svg">
<path fill-rule="evenodd" clip-rule="evenodd" d="M37.3211 0.120714L7.17404 0H7.13364C5.23961 0 3.46614 0.722738 2.09572 2.08805C0.725609 3.41312 0 5.22012 0 7.10729V44.8927C0 46.7799 0.725609 48.5869 2.09572 49.912C3.42605 51.237 5.23961 52 7.13396 52H7.17436L37.3214 51.9195V50.1128C37.3214 40.837 33.7344 32.3647 27.85 26.0604C33.9762 19.4749 37.3214 11.002 37.3214 1.96764V0.120405L37.3211 0.120714ZM15.1949 17.2662C11.6079 15.8207 7.73837 14.8971 3.66782 14.6962V14.6157C9.31047 13.7732 13.7838 9.27612 14.5498 3.65424L22.1269 3.69448C21.6834 8.95483 19.2247 13.7732 15.1946 17.2668L15.1949 17.2662ZM7.13396 3.65362C6.20698 3.65362 5.3204 4.01514 4.67559 4.65771V4.65802C4.03078 5.30029 3.66782 6.18367 3.62773 7.10729V10.9618C7.25484 10.1988 10.1166 7.30786 10.8018 3.65362H7.13396ZM3.66782 37.3834V29.8344C13.4618 30.7178 21.2804 38.5481 22.1272 48.3055L14.5501 48.3458C13.744 42.684 9.31047 38.2268 3.66782 37.3834ZM4.71599 47.3417C5.3608 47.9842 6.24738 48.3458 7.17436 48.3458V48.3455H10.8823C10.197 44.6915 7.33564 41.8405 3.70822 41.0778V44.8924C3.70822 45.8157 4.07086 46.6994 4.71599 47.3417ZM33.6135 48.2653L25.7543 48.3055C24.8677 36.5405 15.4367 27.1041 3.62773 26.1805V18.3504C19.7892 19.274 32.7266 32.2035 33.6135 48.2653ZM18.7412 18.9528C21.0637 20.2292 23.2393 21.7506 25.23 23.4904C30.2683 18.0295 33.2102 11.1227 33.6536 3.7344L25.7944 3.69417C25.3509 9.51662 22.8521 14.8974 18.7412 18.9528Z" fill="url(#paint0_linear)"/>
<path fill-rule="evenodd" clip-rule="evenodd" d="M76.6318 17.594C78.6385 17.594 80.44 17.9916 82.0368 18.8266C83.5931 19.6613 84.8212 20.8539 85.8043 22.404C86.7051 23.9151 87.1555 25.6642 87.1555 27.612C87.1555 29.52 86.7051 31.2692 85.8043 32.7799C84.9032 34.2906 83.6748 35.4832 82.078 36.3179C80.4809 37.1529 78.6793 37.5505 76.6729 37.5505C75.2046 37.5528 73.7479 37.2969 72.3731 36.795C71.128 36.3455 69.9968 35.6406 69.0564 34.728C68.1556 33.8136 67.4596 32.7799 66.9684 31.5476C66.436 30.355 66.1901 29.0032 66.1901 27.612C66.1901 25.7039 66.5996 23.9945 67.4596 22.4838C68.3196 20.9731 69.5479 19.7805 71.1447 18.9061C72.7419 18.0314 74.5846 17.594 76.6318 17.594ZM76.5909 33.4954C78.2289 33.4954 79.6209 32.9388 80.7265 31.8257C81.8732 30.7126 82.4053 29.2816 82.3644 27.5723C82.3644 25.8231 81.8321 24.3918 80.7265 23.2787C79.6209 22.1656 78.2697 21.6091 76.5909 21.6091C74.871 21.6091 73.4382 22.1656 72.3734 23.3185C71.3087 24.4316 70.7763 25.8629 70.7763 27.5723C70.7763 29.2419 71.3087 30.6332 72.4143 31.786C73.5198 32.9391 74.9122 33.4954 76.5909 33.4954Z" fill="#102649"/>
<path d="M101.2 17.594H100.627C99.3988 17.594 98.2932 17.8721 97.1876 18.429C96.0821 18.9852 95.1813 19.7805 94.4033 20.8141H94.3624V17.9122H89.7759V37.2721H94.3618V28.0891C94.3618 27.0157 94.5666 26.1012 94.9762 25.2666C95.3857 24.4316 96.0409 23.7558 96.8597 23.2787C97.6785 22.802 98.6613 22.5238 99.808 22.5238C100.217 22.5238 100.668 22.5238 101.2 22.5636V17.594H101.2Z" fill="#102649"/>
<path fill-rule="evenodd" clip-rule="evenodd" d="M116.965 20.178H117.047V20.1777H116.965L116.965 20.178ZM116.965 20.1777C115.45 18.4288 113.403 17.5542 110.782 17.5542C109.431 17.5542 108.162 17.7926 106.974 18.3097C105.787 18.8262 104.763 19.5023 103.903 20.3767C103.043 21.2514 102.388 22.3248 101.897 23.5571C101.405 24.8291 101.16 26.1409 101.16 27.5722C101.16 28.7648 101.323 29.8381 101.61 30.9115C101.938 31.9452 102.388 32.8593 102.961 33.6546C103.535 34.4495 104.231 35.1253 105.009 35.7215C105.787 36.3178 106.687 36.7552 107.67 37.0336C108.653 37.3117 109.718 37.4707 110.782 37.4707C113.485 37.4707 115.614 36.5168 117.129 34.5687H117.17V37.1528H121.551V17.7926H116.965V20.1777ZM111.56 33.4953C113.116 33.4953 114.468 32.9388 115.573 31.8654V31.8657C116.679 30.7923 117.252 29.361 117.252 27.6517C117.252 25.9423 116.72 24.5113 115.655 23.3584C114.59 22.2053 113.239 21.6093 111.601 21.6093C110.782 21.6093 110.045 21.7682 109.349 22.0464C108.659 22.3205 108.033 22.726 107.507 23.2389C106.974 23.7558 106.565 24.3918 106.278 25.1473C105.991 25.9025 105.827 26.7375 105.827 27.6517C105.827 29.361 106.36 30.7923 107.425 31.8657C108.489 32.9391 109.881 33.4953 111.56 33.4953ZM144.687 22.4043C144.277 21.649 143.786 21.0127 143.213 20.4164C142.64 19.8205 141.984 19.3033 141.288 18.8663C140.592 18.4289 139.814 18.1108 138.955 17.9121C138.094 17.7134 137.235 17.5545 136.333 17.5545C133.672 17.5545 131.543 18.4286 129.987 20.178H129.905V17.8326H125.319V45.0241H129.905V34.8071H129.946C131.461 36.596 133.549 37.5101 136.252 37.5101C137.357 37.5101 138.381 37.3512 139.364 37.073C140.347 36.7552 141.247 36.3175 142.025 35.761C142.803 35.2047 143.499 34.4889 144.073 33.694C144.646 32.8987 145.096 31.9846 145.424 30.9509C145.752 29.9173 145.874 28.8042 145.874 27.6116C145.874 26.6574 145.752 25.7433 145.547 24.8288C145.342 23.9147 145.096 23.1592 144.687 22.404L144.687 22.4043ZM135.555 33.4953C137.235 33.4953 138.627 32.9388 139.691 31.8657C140.756 30.7923 141.288 29.361 141.288 27.6517C141.288 25.8628 140.756 24.3918 139.65 23.2787C138.545 22.1656 137.193 21.609 135.555 21.609C133.877 21.609 132.444 22.1656 131.379 23.3184C130.273 24.4716 129.741 25.9025 129.741 27.6517C129.741 29.361 130.314 30.7923 131.42 31.8657C132.526 32.9391 133.918 33.4953 135.555 33.4953ZM163.318 20.178H163.236C161.721 18.4289 159.674 17.5542 157.053 17.5542C155.702 17.5542 154.433 17.7926 153.245 18.3097C152.058 18.8262 151.034 19.5023 150.174 20.3767C149.314 21.2514 148.659 22.3248 148.168 23.5571C147.676 24.8291 147.43 26.1409 147.43 27.5722C147.43 28.7648 147.594 29.8381 147.881 30.9115C148.208 31.9452 148.659 32.8593 149.232 33.6546C149.805 34.4495 150.501 35.1253 151.28 35.7215C152.057 36.3178 152.958 36.7552 153.941 37.0336C154.924 37.3117 155.989 37.4707 157.053 37.4707C159.756 37.4707 161.885 36.5168 163.4 34.5687H163.441V37.1528H167.822V17.7926H163.236V20.1777H163.318V20.178ZM157.831 33.4953C159.387 33.4953 160.738 32.9388 161.844 31.8654V31.8657C162.95 30.7923 163.523 29.361 163.523 27.6517C163.523 25.9423 162.991 24.5113 161.926 23.3584C160.861 22.2053 159.51 21.6093 157.872 21.6093C157.053 21.6093 156.316 21.7682 155.62 22.0464C154.93 22.3205 154.304 22.726 153.777 23.2389C153.245 23.7558 152.835 24.3918 152.549 25.1473C152.262 25.9025 152.099 26.7375 152.099 27.6517C152.099 29.361 152.631 30.7923 153.695 31.8657C154.76 32.9391 156.152 33.4953 157.831 33.4953Z" fill="#102649"/>
<path fill-rule="evenodd" clip-rule="evenodd" d="M61.3991 17.8721H66.8044L59.6389 25.7042L66.9276 37.2326H61.7681L56.6087 29.0832H56.5267L53.1691 32.7007V37.2326H48.624V9.32568H53.1694V26.6978H53.2511L61.3991 17.8721ZM179.779 30.9115L184.939 17.8721L189.73 17.8724L178.756 45.0638H173.924L177.527 36.1589L169.419 17.8724H174.251L179.738 30.9115H179.779Z" fill="#102649"/>
<defs>
<linearGradient id="paint0_linear" x1="62.2418" y1="27.1182" x2="16.4993" y2="3.64226" gradientUnits="userSpaceOnUse">
<stop stop-color="#5C33F3"/>
<stop offset="1" stop-color="#2CADFF"/>
</linearGradient>
</defs>
</svg>
