<svg width="337" height="194" viewBox="0 0 337 194" xmlns="http://www.w3.org/2000/svg"><g fill="none" fill-rule="evenodd"><path fill="#FFF" d="M0 0h337v194H0z"/><path d="M226.794 126.2c-4.787 8.1-10.18 13.84-16.843 18.508a67.482 67.482 0 0 1-15.655 8.146c-5.681 2.072-11.579 3.517-17.59 4.432-8.73 1.327-17.497 1.823-26.34 1.435-9.833-.431-19.36-2.303-28.426-6.133-3.328-1.406-6.656-2.99-9.534-5.316-2.176-1.76-4.654-3.2-6.618-5.16-2.858-2.85-5.58-5.891-7.992-9.122-4.855-6.495-7.63-13.897-8.623-21.897-.544-4.377-1.106-8.794-1.077-13.185.031-4.556.717-9.107 1.21-13.65.418-3.848.9-7.69 1.48-11.516.847-5.594 1.47-11.252 2.8-16.733 1.695-6.98 3.44-14.017 7.176-20.291 3.62-6.083 8.283-11.271 14.482-14.767 5.428-3.061 11.4-4.368 17.735-4.28 6.999.096 13.343 2.341 19.257 5.728 4.32 2.474 8.281 5.57 11.957 8.987 3.028 2.815 6.02 5.701 9.288 8.216 3.442 2.648 6.88 5.356 10.824 7.294 5.593 2.75 11.197 5.482 16.742 8.326 4.872 2.5 9.328 5.636 13.584 9.083a44.674 44.674 0 0 1 8.957 9.798c4.664 6.922 8.111 14.32 8.785 22.81.402 5.049.637 10.056-.488 15.013-.547 2.416-1.206 4.824-2.063 7.143-1.042 2.823-2.346 5.548-3.028 7.132" fill="#FFAD43" style="mix-blend-mode:multiply"/><path d="M90.796 15.525c2.92.954 5.494 2.648 8.014 4.4 3.04 2.112 6.236 3.883 9.76 5.049 1.958.647 3.941 1.236 5.853 2 3.467 1.385 6.774 3.132 9.393 5.82 2.532 2.598 4.425 5.637 5.452 9.182 1.025 3.537 1.133 7.068.311 10.626-.707 3.058-2.085 5.801-4.08 8.236-1.758 2.144-3.816 3.929-6.29 5.203-4.966 2.557-10.13 3.102-15.582 1.672-3.442-.904-6.418-2.592-9.046-4.857-1.717-1.48-3.236-3.216-4.68-4.971-2.216-2.694-4.31-5.499-7.045-7.706-1.943-1.568-4.012-2.98-6.01-4.481-2.298-1.725-4.418-3.676-5.96-6.084-3.359-5.239-4.084-10.803-1.443-16.548 1.421-3.092 3.786-5.345 6.816-6.952 2.694-1.43 5.549-2.004 8.57-1.87 2.043.091 4.035.452 5.967 1.28" fill="#97CAD1" style="mix-blend-mode:multiply"/><path d="M215.28 170.092c4.108.048 8.094-.892 12.024-2.205 5.626-1.88 11.256-3.746 16.846-5.778 3.571-1.298 7.17-2.61 10.58-4.404 4.64-2.441 8.902-5.699 12.672-9.89 3.472-3.858 6.37-8.223 8.655-13.172 2.042-4.426 3.436-9.14 4.318-14.135 1.03-5.849 1.19-11.71.581-17.57-.5-4.815-1.65-9.49-3.329-13.928-3.034-8.023-7.466-14.752-13.32-19.98-3.748-3.345-7.868-5.924-12.384-7.606-3.928-1.463-7.936-2.197-11.986-2.397-3.224-.16-6.446.41-9.638 1.199-3.81.942-7.41 2.559-10.819 4.719-5.336 3.382-9.85 8.003-13.573 13.776-2.988 4.631-5.216 9.773-7.113 15.124-.864 2.439-1.336 5.082-1.983 7.633-.903 3.556-1.831 7.104-2.698 10.674a366.098 366.098 0 0 0-2.31 10.015c-.906 4.252-1.805 8.505-2.145 12.907-.32 4.158-.17 8.277.613 12.32.8 4.129 2.32 7.894 4.487 11.26 3.395 5.276 7.813 8.652 13.112 10.4 2.425.799 4.907 1.038 7.41 1.038" fill="#F3DDCA" style="mix-blend-mode:multiply"/><circle fill="#FF5B63" style="mix-blend-mode:multiply" cx="124.75" cy="152.75" r="18.75"/><circle fill="#FFF" cx="176" cy="101" r="46"/><g fill-rule="nonzero" stroke-linecap="round" stroke-linejoin="round" stroke-width="4"><path d="M160 83h32a6 6 0 0 1 6 6v28a6 6 0 0 1-6 6h-32a6 6 0 0 1-6-6V89a6 6 0 0 1 6-6zm2 12h28m-24-16v8m20-8v8" stroke="#7A1D47"/><path stroke="#FFAD43" d="M178 111l4 4 8-10"/></g></g></svg>