<svg width="337" height="194" viewBox="0 0 337 194" xmlns="http://www.w3.org/2000/svg"><g fill="none" fill-rule="evenodd"><path fill="#FFF" d="M0 0h337v194H0z"/><path d="M247.141 81.038c4.752-4.186 9.12-8.72 12.288-14.266 6.896-11.951 6.806-23.878-.56-35.505-8.446-13.327-20.75-19.635-36.547-18.671-8.227.502-15.57 3.854-22.367 8.356a29.874 29.874 0 0 0-12.182 15.618 41.22 41.22 0 0 1-1.698 4.219 5.858 5.858 0 0 1-6.156 3.538c-2.022-.154-4.06-.518-6.026-.866a58.118 58.118 0 0 0-27.354 1.692c-23.47 7.198-40.071 29.464-40.039 53.949 0 17.246 6.497 31.756 19.41 43.148 17.787 15.691 42.85 18.623 63.999 7.805 1.673-.858 3.338-1.74 5.035-2.55a10.587 10.587 0 0 1 8.86-.357c1.552.608 3.07 1.304 4.581 1.992a46.022 46.022 0 0 0 20.264 4.267c14.797-.3 26.963-10.752 28.71-25.197 1.372-11.295-2.868-20.363-11.98-27.18-1.21-.908-2.501-1.726-3.752-2.592-4.378-3.044-4.873-6.753-1.365-10.825 1.04-1.199 2.218-2.292 3.363-3.393s2.339-2.113 3.516-3.182z" fill="#009BAE" style="mix-blend-mode:multiply"/><path d="M109.634 11.018c-1.935 1.507-3.37 3.517-4.748 5.56-1.661 2.462-3.55 4.692-5.88 6.522-1.293 1.017-2.625 1.993-3.847 3.09-2.217 1.992-4.197 4.231-5.357 7.047-1.12 2.72-1.614 5.63-1.286 8.725.327 3.086 1.352 5.935 3.098 8.567 1.501 2.263 3.417 4.102 5.708 5.538 2.016 1.264 4.15 2.165 6.443 2.552 4.601.776 8.721-.106 12.442-2.64 2.35-1.6 4.095-3.707 5.394-6.188.848-1.619 1.465-3.394 2.018-5.164.85-2.718 1.57-5.492 2.969-7.953.993-1.748 2.132-3.404 3.19-5.113 1.215-1.964 2.223-4.063 2.648-6.38.923-5.041-.27-9.671-4.093-13.586-2.058-2.108-4.574-3.304-7.396-3.815-2.51-.455-4.873-.185-7.142.693-1.534.594-2.944 1.39-4.161 2.545" fill="#FFAD43" style="mix-blend-mode:multiply"/><path d="M158.452 182.092c-5.318.05-10.476-.916-15.561-2.265-7.281-1.93-14.567-3.847-21.8-5.934-4.622-1.332-9.278-2.68-13.692-4.523-6.004-2.507-11.52-5.852-16.399-10.156-4.493-3.962-8.243-8.445-11.2-13.529-2.642-4.545-4.446-9.385-5.587-14.516-1.334-6.007-1.54-12.027-.753-18.045.647-4.944 2.136-9.746 4.308-14.304 3.927-8.24 9.662-15.15 17.237-20.518 4.85-3.436 10.183-6.085 16.026-7.812 5.083-1.503 10.27-2.257 15.512-2.462 4.172-.164 8.341.42 12.472 1.23 4.93.968 9.59 2.629 14 4.847 6.905 3.474 12.747 8.22 17.565 14.149 3.866 4.756 6.75 10.036 9.205 15.531 1.118 2.506 1.729 5.22 2.566 7.84 1.17 3.652 2.37 7.296 3.49 10.962 1.046 3.415 2.064 6.84 2.99 10.286 1.174 4.367 2.337 8.734 2.777 13.255.414 4.271.22 8.5-.794 12.653-1.036 4.24-3.002 8.107-5.806 11.564-4.394 5.419-10.11 8.886-16.969 10.68-3.138.821-6.35 1.067-9.587 1.067" fill="#F6C7D4" style="mix-blend-mode:multiply"/><circle fill="#FFF" cx="164" cy="99" r="46"/><g stroke-linecap="round" stroke-linejoin="round"><path d="M167.174 112.565L176.739 123v-10.435h5.391a4 4 0 0 0 4-4V83.174a4 4 0 0 0-4-4h-37.913a4 4 0 0 0-4 4v25.391a4 4 0 0 0 4 4h22.957z" stroke="#00455D" stroke-width="4" fill="#FFF"/><path stroke="#FFAD43" fill="#FFAD43" d="M163.696 101.478l-5.06 2.66.966-5.634-4.094-3.99 5.658-.822 2.53-5.127 2.53 5.127 5.657.822-4.094 3.99.967 5.634z"/></g></g></svg>