<svg width="337" height="194" viewBox="0 0 337 194" xmlns="http://www.w3.org/2000/svg"><g fill="none" fill-rule="evenodd"><path fill="#FFF" d="M0 0h337v194H0z"/><path d="M94.986 116.16l-1.536-2.437c-.448-.965-.92-1.92-1.34-2.897-2.35-5.506-2.639-11.129-.872-16.847 2.175-7.046 6.843-11.889 13.302-15.18 3.053-1.557 6.254-2.7 9.513-3.702 4.817-1.481 9.017-3.913 12.112-7.99 2.106-2.775 4.131-5.613 6.156-8.448 3.19-4.468 6.748-8.585 11.116-11.947.554-.427 1.086-.882 1.628-1.324l3.353-2.128c.25-.105.501-.203.746-.316 2.185-1.005 4.307-2.189 6.563-2.991 9.333-3.317 18.708-3.253 28.02.092 7.265 2.607 13.351 6.934 18.269 12.928a42.528 42.528 0 0 1 6.67 11.26c2.515 6.296 3.453 12.853 3.09 19.62-.276 5.095-1.322 10.056-2.436 15.01-.958 4.266-1.842 8.565-1.687 12.954.13 3.714.536 7.42.88 11.124.678 7.317.523 14.565-1.685 21.647-2.433 7.802-6.915 14.16-13.55 18.926-2.334 1.676-4.861 3.06-7.581 4.021-5.508 1.944-11.15 2.478-16.914 1.458-5.796-1.026-10.922-3.55-15.54-7.145-4.052-3.154-7.582-6.856-10.974-10.7-2.576-2.92-5.22-5.775-8.218-8.275-5.023-4.188-10.558-7.602-16.249-10.77-3.779-2.105-7.623-4.091-11.402-6.198-3.661-2.04-6.966-4.555-9.727-7.746-.574-.663-1.138-1.333-1.707-2" fill="#FF5B63" style="mix-blend-mode:multiply"/><path d="M263.977 48.74c1.307 3.233 1.69 6.713 1.981 10.19.353 4.194 1.129 8.27 2.692 12.182.869 2.174 1.81 4.325 2.54 6.544 1.324 4.026 2.203 8.18 1.725 12.436-.46 4.113-1.792 8-4.222 11.511-2.423 3.504-5.521 6.211-9.333 8.132-3.277 1.651-6.768 2.488-10.44 2.562-3.232.066-6.364-.394-9.346-1.592-5.983-2.405-10.302-6.47-13.057-12.247-1.74-3.647-2.426-7.472-2.336-11.423.058-2.58.495-5.18 1.005-7.727.78-3.912 1.753-7.799 1.711-11.798-.029-2.842-.291-5.678-.423-8.518-.15-3.264.034-6.542 1.057-9.66 2.226-6.78 6.697-11.526 13.825-13.491 3.837-1.058 7.619-.679 11.312.754 3.285 1.274 5.918 3.32 8.037 6.034 1.433 1.834 2.585 3.825 3.272 6.11" fill="#FFA818"/><path d="M223.488 181.46c-1.928-1.645-3.205-3.335-4.141-5.308a18.135 18.135 0 0 1-1.454-4.497 24.296 24.296 0 0 1-.386-4.827c.04-2.353.3-4.676.799-6.976.553-2.558 1.474-4.966 2.892-7.16.521-.804 1.089-1.601 1.833-2.244.563-.485 1.054-1.066 1.66-1.487a22.133 22.133 0 0 1 2.77-1.656c1.934-.96 4.016-1.332 6.176-1.207 1.182.068 2.375.133 3.535.352 1.204.228 2.377.627 3.556.975a76.24 76.24 0 0 1 2.98.942c1.44.492 2.909.928 4.299 1.54 1.77.78 3.553 1.578 5.045 2.86 1.447 1.242 2.61 2.714 3.258 4.508.566 1.57.645 3.2.338 4.857-.338 1.83-1.215 3.386-2.375 4.774-.848 1.014-1.844 1.904-2.912 2.703-.88.659-1.777 1.304-2.588 2.04-.854.775-1.724 1.547-2.413 2.488-.977 1.334-1.95 2.672-2.95 3.99-.88 1.156-1.908 2.174-3.01 3.124a11.766 11.766 0 0 1-2.991 1.877c-2.04.89-4.15 1.438-6.425 1.206-1.353-.138-2.688-.317-3.949-.851a15.56 15.56 0 0 1-1.796-.885c-.7-.41-1.363-.882-1.75-1.138" fill="#97CAD1" style="mix-blend-mode:multiply"/><path d="M81.123 147.092c4.32.05 8.51-.94 12.64-2.324 5.915-1.982 11.833-3.949 17.709-6.09 3.754-1.368 7.537-2.75 11.122-4.642 4.877-2.573 9.357-6.007 13.32-10.424 3.65-4.066 6.697-8.667 9.098-13.884 2.147-4.664 3.612-9.632 4.539-14.898 1.084-6.165 1.251-12.343.612-18.52-.526-5.074-1.735-10.002-3.5-14.68-3.19-8.456-7.849-15.548-14.002-21.057-3.94-3.527-8.271-6.245-13.018-8.018-4.129-1.542-8.342-2.316-12.6-2.527-3.389-.168-6.776.433-10.131 1.264-4.005.993-7.79 2.697-11.373 4.974-5.608 3.565-10.354 8.436-14.268 14.52-3.14 4.882-5.482 10.3-7.476 15.94-.909 2.572-1.405 5.357-2.085 8.046-.95 3.748-1.925 7.488-2.836 11.25a386.75 386.75 0 0 0-2.428 10.557c-.953 4.482-1.898 8.964-2.255 13.604-.337 4.383-.18 8.723.644 12.985.842 4.352 2.439 8.32 4.717 11.868 3.569 5.561 8.213 9.12 13.784 10.961 2.549.843 5.157 1.095 7.787 1.095" fill="#AFC5AA" style="mix-blend-mode:multiply"/><ellipse fill="#FFF" cx="162.248" cy="99" rx="36.075" ry="36"/><path d="M153.592 107.008c.873.612 1.374 1.536 1.374 2.557.002 1.755 1.446 6.222 3.218 6.222h8.757c1.773 0 3.217-4.467 3.218-6.224 0-1.009.47-1.932 1.259-2.472 4.2-2.884 6.71-7.623 6.71-12.676 0-8.5-6.984-15.415-15.57-15.415-.583 0-1.178.032-1.766.097-7.28.802-13.05 6.63-13.723 13.859-.519 5.584 1.92 10.838 6.523 14.052z" stroke="#7A1D47" stroke-width="4" fill="#FFF" fill-rule="nonzero"/><path d="M158.007 97.134a.822.822 0 0 0 .013.098c.006.03.016.058.026.086a.691.691 0 0 0 .08.167.834.834 0 0 0 .189.22c.028.023.059.044.09.065.018.014.034.029.055.041.005.004.012.005.017.008a1.26 1.26 0 0 0 .355.137c.102.024.208.04.32.04h3.477l-4.397 4.675c-.383.407-.281.986.228 1.292.208.125.451.186.693.186.35 0 .696-.127.923-.368l5.786-6.152c.005-.007.009-.014.015-.02.024-.027.044-.057.065-.086.017-.024.035-.048.049-.072.015-.028.026-.057.038-.086.012-.03.025-.057.033-.087.008-.026.01-.053.015-.08.006-.034.012-.067.013-.102 0-.007.003-.014.003-.022 0-.02-.006-.04-.008-.06a.656.656 0 0 0-.012-.098c-.006-.03-.016-.057-.026-.085a.691.691 0 0 0-.08-.167.79.79 0 0 0-.053-.08.827.827 0 0 0-.065-.071.872.872 0 0 0-.071-.069c-.028-.024-.059-.045-.09-.066-.018-.013-.034-.029-.055-.041-.008-.005-.016-.007-.025-.012-.034-.02-.072-.036-.11-.053-.029-.013-.057-.027-.087-.038-.036-.013-.075-.022-.113-.032-.034-.009-.067-.02-.1-.026-.036-.006-.074-.009-.11-.013-.04-.004-.078-.008-.117-.009l-.032-.002h-3.474l4.397-4.675c.383-.407.28-.986-.229-1.292-.508-.306-1.232-.224-1.615.183l-5.786 6.152c-.006.006-.01.013-.015.02a.776.776 0 0 0-.065.086c-.017.024-.036.047-.05.072-.015.027-.025.056-.037.086-.013.029-.026.057-.034.086-.007.027-.01.054-.015.08a.753.753 0 0 0-.013.102l-.002.023c-.001.02.005.039.006.059z" stroke="#FFAD43" fill="#FFAD43"/><path d="M159.705 121.293h5.66" stroke="#7A1D47" stroke-width="4" stroke-linecap="round" stroke-linejoin="round"/></g></svg>