<svg width="181" height="53" viewBox="0 0 181 53" fill="none" xmlns="http://www.w3.org/2000/svg">
<path fill-rule="evenodd" clip-rule="evenodd" d="M174.294 53H6.70617C3.01012 53 0 50.013 0 46.375V6.625C0 2.97382 3.01012 0 6.70617 0H174.294C177.987 0 181 2.97382 181 6.625V46.375C181 50.013 177.987 53 174.294 53Z" fill="#022B69"/>
<path fill-rule="evenodd" clip-rule="evenodd" d="M174.294 1.06066C177.394 1.06066 179.931 3.56197 179.931 6.625V46.375C179.931 49.438 177.41 51.9393 174.294 51.9393H6.70617C3.60615 51.9393 1.06886 49.438 1.06886 46.375V6.625C1.06886 3.56197 3.5895 1.06066 6.70617 1.06066C6.70617 1.06066 174.294 1.06066 174.294 1.06066ZM174.294 0H6.70617C3.01012 0 0 2.98703 0 6.625V46.375C0 50.0262 3.01012 53 6.70617 53H174.294C177.987 53 181 50.0262 181 46.375V6.625C181 2.98703 177.987 0 174.294 0Z" fill="#A6A6A6"/>
<path d="M95.3515 17.5323C94.1428 17.5323 93.1239 17.1127 92.3181 16.2866C91.5189 15.4837 91.0727 14.3767 91.0927 13.2467C91.0927 12.0406 91.5056 11.0196 92.3181 10.2101C93.1206 9.38404 94.1395 8.9644 95.3482 8.9644C96.5436 8.9644 97.5625 9.38404 98.3816 10.2101C99.1941 11.0461 99.607 12.0671 99.607 13.2467C99.5936 14.456 99.1807 15.4771 98.3816 16.2833C97.5791 17.116 96.5602 17.5323 95.3515 17.5323ZM59.3866 17.5323C58.2045 17.5323 57.179 17.1193 56.3399 16.3031C55.5074 15.4903 55.0845 14.4627 55.0845 13.25C55.0845 12.0373 55.5074 11.0097 56.3399 10.1969C57.1623 9.38074 58.1879 8.96771 59.3866 8.96771C59.9726 8.96771 60.542 9.08335 61.0881 9.31796C61.6242 9.54595 62.0604 9.85655 62.3834 10.2365L62.4633 10.3324L61.5609 11.2113L61.4677 11.1022C60.9583 10.5009 60.2757 10.2068 59.3733 10.2068C58.5675 10.2068 57.8649 10.491 57.2855 11.0527C56.7028 11.6177 56.4065 12.3579 56.4065 13.2533C56.4065 14.1488 56.7028 14.8889 57.2855 15.4539C57.8649 16.0156 58.5675 16.2998 59.3733 16.2998C60.2324 16.2998 60.9549 16.0156 61.5177 15.4539C61.8506 15.1235 62.0571 14.6609 62.1303 14.0761H59.2368V12.8403H63.3723L63.389 12.9526C63.419 13.1608 63.4489 13.3756 63.4489 13.5738C63.4489 14.7138 63.1026 15.6357 62.4167 16.3163C61.6375 17.1226 60.6186 17.5323 59.3866 17.5323ZM107.206 17.3572H105.93L102.024 11.1551L102.058 12.2719V17.3539H100.782V9.14283H102.237L102.277 9.20561L105.95 15.0475L105.917 13.934V9.14283H107.206V17.3572V17.3572ZM85.7684 17.3572H84.4765V10.3786H82.2355V9.14283H88.006V10.3786H85.7651V17.3572H85.7684ZM81.1833 17.3572H79.8947V9.14283H81.1833V17.3572ZM73.9411 17.3572H72.6524V10.3786H70.4115V9.14283H76.182V10.3786H73.9411V17.3572ZM69.5957 17.344H64.6543V9.14283H69.5957V10.3786H65.9463V12.6321H69.2394V13.8547H65.9463V16.1082H69.5957V17.344ZM93.2637 15.4374C93.8398 16.009 94.539 16.2965 95.3515 16.2965C96.1873 16.2965 96.8699 16.0156 97.4393 15.4374C98.0053 14.8757 98.2917 14.1388 98.2917 13.25C98.2917 12.3612 98.0053 11.621 97.4426 11.0626C96.8665 10.491 96.164 10.2035 95.3548 10.2035C94.5191 10.2035 93.8365 10.4844 93.2704 11.0626C92.7043 11.6243 92.418 12.3612 92.418 13.25C92.418 14.1388 92.701 14.879 93.2637 15.4374Z" fill="white"/>
<path fill-rule="evenodd" clip-rule="evenodd" d="M90.9728 28.8262C87.8262 28.8262 85.2756 31.1953 85.2756 34.4632C85.2756 37.7014 87.8428 40.1003 90.9728 40.1003C94.1195 40.1003 96.6701 37.7146 96.6701 34.4632C96.6701 31.1953 94.1195 28.8262 90.9728 28.8262ZM90.9728 37.8666C89.2513 37.8666 87.7696 36.4524 87.7696 34.45C87.7696 32.4179 89.2547 31.0334 90.9728 31.0334C92.6943 31.0334 94.1761 32.4179 94.1761 34.45C94.1794 36.4656 92.6943 37.8666 90.9728 37.8666ZM78.5428 28.8262C75.3961 28.8262 72.8455 31.1953 72.8455 34.4632C72.8455 37.7014 75.4128 40.1003 78.5428 40.1003C81.6894 40.1003 84.24 37.7146 84.24 34.4632C84.24 31.1953 81.6861 28.8262 78.5428 28.8262ZM78.5428 37.8666C76.8213 37.8666 75.3395 36.4524 75.3395 34.45C75.3395 32.4179 76.8246 31.0334 78.5428 31.0334C80.2643 31.0334 81.746 32.4179 81.746 34.45C81.746 36.4656 80.2643 37.8666 78.5428 37.8666ZM63.7519 30.5477V32.9334H69.5224C69.3459 34.2716 68.8997 35.2595 68.2171 35.9369C67.3714 36.7762 66.0661 37.6882 63.7652 37.6882C60.219 37.6882 57.4453 34.8465 57.4453 31.3275C57.4453 27.8085 60.219 24.9668 63.7652 24.9668C65.6798 24.9668 67.075 25.7169 68.1106 26.6751L69.8154 24.9834C68.377 23.6154 66.4623 22.568 63.7785 22.568C58.9137 22.568 54.8314 26.5 54.8314 31.3143C54.8314 36.1418 58.9104 40.0606 63.7785 40.0606C66.4057 40.0606 68.377 39.2081 69.9353 37.6023C71.5236 36.0261 72.0264 33.8024 72.0264 32.0082C72.0264 31.4498 71.9831 30.9475 71.8932 30.5213H63.7486C63.7519 30.518 63.7519 30.5477 63.7519 30.5477ZM124.251 32.4047C123.774 31.1392 122.336 28.813 119.386 28.813C116.462 28.813 114.032 31.0962 114.032 34.45C114.032 37.6155 116.436 40.087 119.669 40.087C122.266 40.087 123.778 38.5109 124.4 37.5857L122.473 36.3037C121.833 37.2454 120.944 37.8633 119.682 37.8633C118.407 37.8633 117.514 37.2883 116.922 36.155L124.517 33.0325C124.517 33.0358 124.251 32.4047 124.251 32.4047ZM116.506 34.2881C116.446 32.1106 118.21 31.0037 119.472 31.0037C120.468 31.0037 121.297 31.4894 121.58 32.1965L116.506 34.2881ZM110.335 39.75H112.829V23.1892H110.335V39.75ZM106.24 30.0785H106.15C105.587 29.4143 104.518 28.813 103.153 28.813C100.32 28.813 97.709 31.2878 97.709 34.4665C97.709 37.632 100.306 40.0771 103.153 40.0771C104.502 40.0771 105.587 39.4724 106.15 38.7951H106.24V39.6046C106.24 41.7557 105.081 42.9155 103.213 42.9155C101.685 42.9155 100.736 41.8251 100.349 40.9131L98.1818 41.8119C98.8045 43.2988 100.466 45.1392 103.21 45.1392C106.133 45.1392 108.611 43.4309 108.611 39.2643V29.15H106.253V30.0785C106.257 30.0785 106.24 30.0785 106.24 30.0785ZM103.376 37.8666C101.655 37.8666 100.216 36.4392 100.216 34.4665C100.216 32.4774 101.655 31.0367 103.376 31.0367C105.081 31.0367 106.403 32.4939 106.403 34.4665C106.42 36.4392 105.084 37.8666 103.376 37.8666ZM135.928 23.1892H129.965V39.75H132.459V33.4786H135.931C138.692 33.4786 141.406 31.4927 141.406 28.3405C141.406 25.1882 138.702 23.1892 135.928 23.1892ZM136.001 31.1656H132.455V25.4823H136.001C137.869 25.4823 138.925 27.0122 138.925 28.3239C138.925 29.6225 137.856 31.1656 136.001 31.1656ZM151.402 28.7965C149.59 28.7965 147.722 29.5928 146.95 31.3275L149.161 32.2395C149.637 31.3275 150.509 31.0169 151.432 31.0169C152.724 31.0169 154.029 31.7835 154.059 33.1514V33.3266C153.613 33.0754 152.634 32.6922 151.462 32.6922C149.074 32.6922 146.653 33.9874 146.653 36.416C146.653 38.6398 148.611 40.0672 150.792 40.0672C152.467 40.0672 153.39 39.3171 153.966 38.4481H154.055V39.7302H156.46V33.386C156.46 30.4321 154.249 28.7965 151.402 28.7965ZM151.089 37.8666C150.273 37.8666 149.131 37.4701 149.131 36.4524C149.131 35.1703 150.556 34.6846 151.771 34.6846C152.87 34.6846 153.39 34.9192 154.042 35.243C153.862 36.7299 152.597 37.8534 151.089 37.8666ZM165.23 29.15L162.367 36.3334H162.277L159.31 29.15H156.626L161.078 39.1916L158.541 44.7724H161.138L167.987 29.15H165.23ZM142.781 39.75H145.275V23.1892H142.781V39.75Z" fill="white"/>
<path fill-rule="evenodd" clip-rule="evenodd" d="M13.9318 9.9821C13.5455 10.3951 13.3224 11.0262 13.3224 11.8523V41.151C13.3224 41.977 13.5455 42.6081 13.9451 43.0047L14.0483 43.0939L30.5907 26.6784V26.3116L14.035 9.89288L13.9318 9.9821Z" fill="url(#paint0_linear)"/>
<path fill-rule="evenodd" clip-rule="evenodd" d="M36.0948 32.1668L30.5773 26.6916V26.3083L36.0948 20.8332L36.2146 20.9059L42.741 24.5868C44.609 25.631 44.609 27.3558 42.741 28.4131L36.2146 32.0941L36.0948 32.1668Z" fill="url(#paint1_linear)"/>
<path fill-rule="evenodd" clip-rule="evenodd" d="M36.2146 32.0941L30.5773 26.5L13.9318 43.0179C14.5411 43.6655 15.5634 43.7382 16.7055 43.1071L36.2146 32.0941Z" fill="url(#paint2_linear)"/>
<path fill-rule="evenodd" clip-rule="evenodd" d="M36.2146 20.9059L16.7055 9.90942C15.5634 9.26179 14.5378 9.351 13.9318 9.99863L30.5773 26.5L36.2146 20.9059Z" fill="url(#paint3_linear)"/>
<path opacity="0.2" fill-rule="evenodd" clip-rule="evenodd" d="M36.0947 31.9751L16.7188 42.8989C15.6366 43.5168 14.671 43.4739 14.0483 42.9122L13.9451 43.0146L14.0483 43.1038C14.671 43.6622 15.6366 43.7085 16.7188 43.0906L36.2279 32.0941L36.0947 31.9751Z" fill="black"/>
<path opacity="0.12" fill-rule="evenodd" clip-rule="evenodd" d="M42.7411 28.2215L36.0782 31.9751L36.1981 32.0941L42.7244 28.4132C43.6601 27.8845 44.1196 27.1906 44.1196 26.5C44.063 27.1344 43.5868 27.7358 42.7411 28.2215Z" fill="black"/>
<path opacity="0.25" fill-rule="evenodd" clip-rule="evenodd" d="M16.7055 10.1011L42.741 24.7785C43.5868 25.251 44.063 25.8689 44.1362 26.5C44.1362 25.8094 43.6767 25.1155 42.741 24.5868L16.7055 9.90942C14.8375 8.84876 13.3224 9.7343 13.3224 11.8523V12.044C13.3224 9.92264 14.8375 9.05362 16.7055 10.1011Z" fill="white"/>
<defs>
<linearGradient id="paint0_linear" x1="29.1069" y1="11.5362" x2="2.63612" y2="18.6439" gradientUnits="userSpaceOnUse">
<stop stop-color="#00A0FF"/>
<stop offset="0.00657" stop-color="#00A1FF"/>
<stop offset="0.2601" stop-color="#00BEFF"/>
<stop offset="0.5122" stop-color="#00D2FF"/>
<stop offset="0.7604" stop-color="#00DFFF"/>
<stop offset="1" stop-color="#00E3FF"/>
</linearGradient>
<linearGradient id="paint1_linear" x1="45.177" y1="26.5" x2="12.8684" y2="26.5" gradientUnits="userSpaceOnUse">
<stop stop-color="#FFE000"/>
<stop offset="0.4087" stop-color="#FFBD00"/>
<stop offset="0.7754" stop-color="#FFA500"/>
<stop offset="1" stop-color="#FF9C00"/>
</linearGradient>
<linearGradient id="paint2_linear" x1="33.1493" y1="29.544" x2="12.118" y2="65.2149" gradientUnits="userSpaceOnUse">
<stop stop-color="#FF3A44"/>
<stop offset="1" stop-color="#C31162"/>
</linearGradient>
<linearGradient id="paint3_linear" x1="9.74023" y1="0.236901" x2="19.123" y2="16.168" gradientUnits="userSpaceOnUse">
<stop stop-color="#32A071"/>
<stop offset="0.0685" stop-color="#2DA771"/>
<stop offset="0.4762" stop-color="#15CF74"/>
<stop offset="0.8009" stop-color="#06E775"/>
<stop offset="1" stop-color="#00F076"/>
</linearGradient>
</defs>
</svg>
