<svg width="190" height="46" viewBox="0 0 190 46" fill="none" xmlns="http://www.w3.org/2000/svg">
<path fill-rule="evenodd" clip-rule="evenodd" d="M22.3778 46C34.7367 46 44.7556 35.8932 44.7556 23.4259C44.7556 10.9586 34.7367 0.851807 22.3778 0.851807C10.0189 0.851807 0 10.9586 0 23.4259C0 35.8932 10.0189 46 22.3778 46ZM30.4538 35.2395C28.1564 36.8485 25.3671 37.7912 22.3597 37.7912C14.5049 37.7912 8.13743 31.3597 8.13743 23.4259C8.13743 15.4922 14.5049 9.06064 22.3597 9.06064C30.2145 9.06064 36.5821 15.4922 36.5821 23.4259C36.5821 25.197 36.2648 26.8932 35.6844 28.4597C33.4335 27.6354 30.9246 27.389 28.6274 27.9456C29.5419 26.6582 30.0803 25.0799 30.0803 23.3745C30.0803 19.0393 26.6009 15.5249 22.3089 15.5249C18.0168 15.5249 14.5374 19.0393 14.5374 23.3745C14.5374 27.7097 18.0168 31.2241 22.3089 31.2241C23.2982 31.2241 24.2444 31.0374 25.1147 30.6969C27.2923 31.9717 29.1698 33.8013 30.4538 35.2395ZM37.8589 33.2914C36.8443 34.9082 35.5878 36.355 34.1405 37.5802C32.5554 35.4702 29.3508 32.2839 25.8137 30.2494C29.082 27.7779 34.1449 29.3583 37.8589 33.2914Z" fill="#3E2284"/>
<g opacity="0.15">
<path d="M43.8642 14.4514C40.3357 6.45745 32.2505 0.864552 22.837 0.851807C13.3144 0.864704 5.15083 6.58808 1.68884 14.7308C3.77277 16.679 6.13662 18.3397 8.71488 19.648C10.4066 13.551 16.0657 9.07008 22.7863 9.07008C29.455 9.07008 35.0785 13.4821 36.8177 19.5069C39.4111 18.1577 41.7826 16.4502 43.8642 14.4514Z" fill="white"/>
<path d="M30.5655 21.9288C29.8667 18.2919 26.6262 15.5417 22.7342 15.5417C18.8236 15.5417 15.5707 18.3184 14.8931 21.9812C17.3632 22.619 19.9559 22.9586 22.6292 22.9586C25.3747 22.9586 28.0353 22.6003 30.5655 21.9288Z" fill="white"/>
</g>
<path fill-rule="evenodd" clip-rule="evenodd" d="M59.7068 15.1504C61.8383 13.0154 64.5595 11.926 67.8699 11.926C71.0898 11.926 73.4028 12.8411 74.8537 14.7147V12.3618H81.0668V46.0001H74.4912V32.9718C72.9946 34.584 70.8179 35.3683 67.8699 35.3683C64.5595 35.3683 61.8383 34.279 59.7068 32.1439C57.621 30.0088 56.5779 27.1766 56.5779 23.6472C56.5779 20.1178 57.621 17.2855 59.7068 15.1504ZM74.4912 23.1243C74.4912 19.5949 72.2687 17.3727 68.9583 17.3727C65.5569 17.3727 63.2897 19.682 63.2897 23.6472C63.2897 27.6123 65.5569 29.9217 68.9583 29.9217C72.2687 29.9217 74.4912 27.6995 74.4912 24.17V23.1243Z" fill="#3E2284"/>
<path d="M105.555 11.926H99.1645V25.1168C99.1645 27.8273 97.7205 29.6343 95.3127 29.6343C92.9055 29.6343 91.6798 28.1435 91.6798 25.2072V11.926H85.2888V26.6076C85.2888 32.3447 88.4404 35.7779 93.6494 35.7779C96.4069 35.7779 98.377 34.8292 99.5148 32.9319V35.281H105.555V11.926Z" fill="#3E2284"/>
<path fill-rule="evenodd" clip-rule="evenodd" d="M110.145 7.45928C107.446 5.25844 109.615 0.680675 113.135 0.856744C115.497 0.856744 117.378 2.57341 117.378 4.73024C117.378 5.78666 116.944 6.71102 116.124 7.45928C114.533 8.91184 111.736 8.91184 110.145 7.45928ZM109.615 12.1691H116.655V34.9259H109.615V12.1691Z" fill="#3E2284"/>
<path fill-rule="evenodd" clip-rule="evenodd" d="M136.135 0H142.711V34.4384H136.498V32.0893C135.183 33.7293 132.643 34.9259 129.514 34.9259C126.204 34.9259 123.483 33.8179 121.352 31.6461C119.265 29.4743 118.222 26.5934 118.222 23.0032C118.222 19.4132 119.265 16.5322 121.352 14.3604C123.483 12.1886 126.204 11.0806 129.514 11.0806C132.462 11.0806 134.684 11.8784 136.135 13.5183V0ZM136.135 22.4714C136.135 18.8813 133.913 16.6209 130.603 16.6209C127.202 16.6209 124.934 18.9699 124.934 23.0032C124.934 27.0366 127.202 29.3414 130.603 29.3414C133.913 29.3414 136.135 27.1695 136.135 23.4908V22.4714Z" fill="#3E2284"/>
<path fill-rule="evenodd" clip-rule="evenodd" d="M149.178 14.4531C150.89 12.7684 153.061 11.926 155.691 11.926C161.535 11.926 164.667 15.1181 164.667 21.1476V35.2902H158.78V33.4282C157.361 34.9799 155.524 35.7779 153.27 35.7779C148.802 35.7779 146.089 33.3838 146.089 28.9947C146.089 24.6057 148.969 22.3003 154.731 22.0342L158.571 21.8126V20.9259C158.571 18.5762 157.653 17.3792 155.774 17.3792C153.812 17.3792 152.768 18.7535 152.768 20.3939L146.673 20.1279C146.673 17.9998 147.508 16.0935 149.178 14.4531ZM154.689 30.7681C156.985 30.7681 158.571 29.3938 158.571 27.044V26.0687L155.315 26.2903C153.228 26.379 152.184 27.177 152.184 28.6844C152.184 30.0588 153.019 30.7681 154.689 30.7681Z" fill="#3E2284"/>
<path d="M189.815 11.926H182.146L177.71 19.2154L173.274 11.926H165.604L172.95 23.7366L165.511 35.7779H173.181L177.71 28.3501L182.284 35.7779H190L182.423 23.7366L189.815 11.926Z" fill="#3E2284"/>
</svg>
