<svg width="81" height="68" viewBox="0 0 81 68" xmlns="http://www.w3.org/2000/svg"><g fill="none" fill-rule="evenodd"><path d="M31.125 0C49.328 0 81 18.072 81 36.355 81 54.64 61.547 68 43.344 68S0 60.221 0 41.938C0 23.654 12.923 0 31.125 0z" fill="#F4EFE8"/><path d="M56 42.23c0 3.174-2.718 5.77-6.31 5.77-3.787 0-7.088-2.692-7.088-8.173 0-11.346 7.476-16.25 12.913-16.827v4.52c-4.272.96-7.185 5.384-7.282 9.326.291-.192.97-.48 1.942-.48 3.204 0 5.825 2.21 5.825 5.865zm-16.602 0c0 3.174-2.718 5.77-6.31 5.77C29.3 48 26 45.308 26 39.827 26 28.48 33.476 23.577 38.913 23v4.52c-4.272.96-7.185 5.384-7.282 9.326.291-.192.97-.48 1.942-.48 3.204 0 5.825 2.21 5.825 5.865z" fill="#7A1D47"/></g></svg>