<svg width="157" height="52" viewBox="0 0 157 52" fill="none" xmlns="http://www.w3.org/2000/svg">
<path fill-rule="evenodd" clip-rule="evenodd" d="M76.1311 33.6019C76.4995 33.6019 76.7981 33.313 76.7981 32.9572V0.644751C76.7981 0.288849 76.4995 0 76.1311 0H71.1796C70.8112 0 70.5122 0.288849 70.5122 0.644751V32.9572C70.5122 33.313 70.8112 33.6019 71.1796 33.6019H76.1311ZM42.7406 26.6922C42.7406 30.7223 46.1542 34.3871 51.6809 34.3871C54.6779 34.3871 56.8511 33.3615 58.3129 32.0815C58.8105 31.6456 59.8463 31.9671 59.9168 32.6119C59.9388 32.8242 59.9639 33.0022 59.9859 33.1475C60.0295 33.4217 60.2744 33.6022 60.5608 33.6022H65.118C65.5709 33.6022 65.6117 33.2136 65.6072 32.8251C65.6016 32.3566 65.6031 31.7387 65.6049 30.9786V30.9766V30.9759V30.975V30.9741V30.9731V30.9719V30.9706V30.9692C65.606 30.5322 65.6072 30.0483 65.6072 29.5188V16.8507C65.6072 11.7726 62.5184 7.32302 54.3907 7.32302C48.1697 7.32302 44.1313 10.9164 43.3662 15.0781C43.3065 15.4005 43.5316 15.7013 43.8616 15.7736L48.2915 16.7424C48.6822 16.8275 49.0587 16.5619 49.1466 16.1845C49.6619 13.9674 51.4548 12.2962 54.4448 12.2962C57.9128 12.2962 59.4297 14.0241 59.4297 16.1699C59.4297 17.0596 58.9964 17.7929 57.4794 18.0027L50.7058 18.9965C46.2082 19.6249 42.7406 22.1377 42.7406 26.6922ZM18.5421 8.1099C18.2574 8.1099 18.0028 8.2853 17.9112 8.54578L12.5124 23.8281C12.3024 24.423 11.4241 24.405 11.2408 23.8015L6.60998 8.5724C6.52632 8.29818 6.26559 8.1099 5.96928 8.1099H0.668363C0.214534 8.1099 -0.106703 8.53718 0.0330049 8.95324L8.16187 33.1572C8.25087 33.4229 8.50717 33.6034 8.79636 33.6034H14.2806C14.5671 33.6034 14.8216 33.4263 14.9133 33.1641L20.5292 17.0711C20.7329 16.4882 21.5845 16.4848 21.7928 17.066L27.5546 33.1693C27.6481 33.4289 27.9008 33.6034 28.1855 33.6034H33.5087C33.7988 33.6034 34.056 33.422 34.144 33.1547L42.1698 8.95152C42.3077 8.53546 41.9863 8.1099 41.5342 8.1099H36.5573C36.26 8.1099 35.9984 8.2999 35.9157 8.57588L31.3864 23.78C31.2057 24.386 30.3239 24.4067 30.113 23.8101L24.7213 8.54578C24.6296 8.2853 24.3752 8.1099 24.0904 8.1099H18.5421ZM49.0266 26.326C49.0266 28.0531 50.381 29.6237 52.8734 29.6237C56.3954 29.6237 59.4297 28.0006 59.4297 23.0274V22.6242C59.4297 22.2305 59.0676 21.9288 58.6636 21.9864L52.5486 22.8701C50.598 23.1848 49.0266 24.2318 49.0266 26.326ZM88.4705 32.9572C88.4705 33.313 88.1715 33.6019 87.8031 33.6019H82.8517C82.4833 33.6019 82.1843 33.313 82.1843 32.9572V0.644751C82.1843 0.288849 82.4833 0 82.8517 0H87.8031C88.1715 0 88.4705 0.288849 88.4705 0.644751V32.9572ZM98.4247 19.5759C98.0489 19.6732 97.6641 19.4409 97.6383 19.0666C97.4632 16.5184 98.9421 13.5894 102.442 12.6834C106.315 11.6808 108.92 13.3714 110.003 15.8899C110.149 16.2268 109.935 16.5964 109.569 16.691L98.4247 19.5759ZM112.635 23.3957C112.684 23.0464 112.991 22.7766 113.356 22.7926L117.603 22.9748C117.968 22.9914 118.254 23.2885 118.221 23.6415C117.808 28.0623 114.751 32.2586 108.908 33.7713C101.999 35.5597 94.5286 32.2905 92.2145 23.9477C90.0548 16.1605 94.5911 9.45841 101.029 7.79189C108.88 5.7596 114.875 9.57358 117.035 17.36C117.202 17.9637 117.312 18.5183 117.364 18.875C117.399 19.1178 117.242 19.3116 116.997 19.3748L99.4344 23.9211C99.0684 24.0159 98.8545 24.3881 98.9993 24.7271C100.4 28.008 103.958 29.6335 107.506 28.715C110.874 27.843 112.3 25.7786 112.635 23.3957ZM128.807 0.954836C128.807 0.598073 128.509 0.310082 128.14 0.310082H123.786C123.417 0.310082 123.119 0.598073 123.119 0.954836V4.1313C123.119 6.38194 121.872 8.10987 119.054 8.10987H118.367C117.998 8.10987 117.699 8.39785 117.699 8.75461V12.857C117.699 13.2129 117.998 13.5017 118.367 13.5017H121.909C122.278 13.5017 122.577 13.7897 122.577 14.1465V26.3271C122.577 31.0906 125.611 33.9172 130.488 33.9172C132.222 33.9172 133.327 33.6739 133.922 33.4882C134.177 33.41 134.334 33.1744 134.334 32.9165V29.1022C134.334 28.6955 133.948 28.3843 133.53 28.4342C133.12 28.4823 132.621 28.5253 132.167 28.5253C129.837 28.5253 128.807 27.5831 128.807 25.3325V14.1465C128.807 13.7897 129.106 13.5017 129.475 13.5017H133.614C133.982 13.5017 134.281 13.2129 134.281 12.857V8.75461C134.281 8.39785 133.982 8.10987 133.614 8.10987H129.475C129.106 8.10987 128.807 7.82101 128.807 7.46512V0.954836ZM136.225 27.233C136.161 26.9235 136.369 26.6303 136.685 26.5452L140.84 25.4328C141.241 25.3253 141.643 25.597 141.742 25.9873C142.248 27.9611 143.992 29.5712 146.976 29.5712C149.576 29.5712 150.931 28.2104 150.931 26.6398C150.931 25.2789 149.956 24.2318 147.842 23.8132L143.94 22.975C139.281 21.9804 136.842 19.0489 136.842 15.5414C136.842 11.0926 141.069 7.32302 146.542 7.32302C153.39 7.32302 155.933 11.3015 156.607 13.8806C156.689 14.1986 156.482 14.5107 156.156 14.601L152.155 15.7056C151.765 15.8123 151.37 15.5621 151.251 15.1881C150.8 13.78 149.528 12.0873 146.542 12.0873C144.32 12.0873 142.749 13.4481 142.749 15.0188C142.749 16.3796 143.779 17.3743 145.404 17.688L149.414 18.4729C154.399 19.52 157 22.4515 157 26.2211C157 30.0948 153.749 34.3871 147.029 34.3871C139.851 34.3871 136.833 30.1352 136.225 27.233Z" fill="#00C9B6"/>
<path fill-rule="evenodd" clip-rule="evenodd" d="M135.861 39.9428C135.861 40.6952 136.505 41.2865 137.283 41.2865C138.079 41.2865 138.723 40.6952 138.723 39.9428C138.723 39.1896 138.079 38.5806 137.283 38.5806C136.505 38.5806 135.861 39.1896 135.861 39.9428ZM128.542 40.54C128.475 40.5364 128.403 40.5341 128.326 40.5341C127.738 40.5341 126.96 40.7857 126.96 41.8601V42.5876C126.96 42.8197 127.159 43.0069 127.404 43.0069H128.659C128.905 43.0069 129.103 43.1947 129.103 43.4262V44.3977C129.103 44.6292 128.905 44.817 128.659 44.817H127.404C127.159 44.817 126.96 45.0048 126.96 45.2363V51.3142C126.96 51.5457 126.763 51.7339 126.517 51.7339H125.186C124.941 51.7339 124.743 51.5457 124.743 51.3142V45.2363C124.743 45.0048 124.544 44.817 124.299 44.817H123.575C123.33 44.817 123.131 44.6292 123.131 44.3977V43.4262C123.131 43.1947 123.33 43.0069 123.575 43.0069H124.299C124.544 43.0069 124.743 42.8197 124.743 42.5876V41.8065C124.743 39.8536 126.069 38.671 127.966 38.671C128.324 38.671 128.642 38.7164 128.862 38.7684C129.026 38.8068 129.122 38.9502 129.122 39.1087V40.0677C129.122 40.3469 128.836 40.5541 128.542 40.54ZM117.639 51.9999C115.705 51.9999 114.511 50.7459 114.511 49.366C114.511 47.8065 115.723 46.9468 117.297 46.732L119.667 46.3916C120.198 46.3193 120.35 46.0687 120.35 45.7642C120.35 45.0294 119.819 44.4378 118.605 44.4378C117.661 44.4378 117.058 44.9045 116.817 45.5537C116.729 45.7908 116.481 45.9664 116.221 45.9108L115.085 45.6678C114.866 45.6208 114.714 45.4244 114.768 45.2172C115.114 43.8675 116.499 42.7359 118.586 42.7359C121.43 42.7359 122.511 44.2592 122.511 45.9973V50.3332C122.511 50.6903 122.53 50.9923 122.553 51.2248C122.579 51.4882 122.363 51.7316 122.083 51.7316H120.778C120.744 51.7316 120.714 51.7362 120.688 51.7402C120.622 51.7503 120.581 51.7567 120.563 51.677C120.506 51.4162 120.054 51.1425 119.836 51.3103C119.328 51.7013 118.606 51.9999 117.639 51.9999ZM111.859 51.8401C111.007 51.8401 110.324 51.1948 110.324 50.3881C110.324 49.582 111.007 48.9194 111.859 48.9194C112.713 48.9194 113.414 49.582 113.414 50.3881C113.414 51.1948 112.713 51.8401 111.859 51.8401ZM118.056 50.369C117.183 50.369 116.71 49.8317 116.71 49.24C116.71 48.5237 117.26 48.1656 117.942 48.0574L119.937 47.7755C120.155 47.7446 120.35 47.9038 120.35 48.112C120.35 49.8139 119.288 50.369 118.056 50.369ZM135.3 43.2963C135.3 43.0967 135.151 42.922 134.94 42.9069C134.869 42.902 134.793 42.8987 134.712 42.8987C133.964 42.8987 133.288 43.1098 132.778 43.4949C132.562 43.6577 132.039 43.5074 132.039 43.2466C132.039 43.1141 131.925 43.0059 131.785 43.0059H130.341C130.096 43.0059 129.898 43.1937 129.898 43.4252V51.3136C129.898 51.5451 130.096 51.7329 130.341 51.7329H131.653C131.898 51.7329 132.097 51.5451 132.097 51.3136V47.5756C132.097 45.945 132.873 45.0133 134.58 45.0133C134.647 45.0133 134.716 45.015 134.786 45.0183C135.057 45.0301 135.3 44.8354 135.3 44.5779V43.2963ZM138.383 51.3139C138.383 51.5454 138.184 51.7332 137.939 51.7332H136.646C136.401 51.7332 136.202 51.5454 136.202 51.3139V43.4255C136.202 43.194 136.401 43.0062 136.646 43.0062H137.939C138.184 43.0062 138.383 43.194 138.383 43.4255V51.3139ZM146.364 45.847C146.056 45.2215 145.43 44.6535 144.289 44.6535C142.943 44.6535 141.749 45.603 141.749 47.3585C141.749 49.115 142.943 50.1007 144.328 50.1007C145.487 50.1007 146.143 49.485 146.464 48.8996C146.581 48.6849 146.843 48.5573 147.083 48.6395L148.179 49.0154C148.4 49.0917 148.523 49.3189 148.431 49.5245C147.877 50.7709 146.534 51.9999 144.328 51.9999C141.616 51.9999 139.55 50.0109 139.55 47.3585C139.55 44.6713 141.616 42.7359 144.271 42.7359C146.54 42.7359 147.876 43.9632 148.378 45.2406C148.458 45.4428 148.335 45.6592 148.121 45.7332L146.987 46.1249C146.741 46.2094 146.474 46.0726 146.364 45.847ZM148.955 49.366C148.955 50.7459 150.149 51.9999 152.083 51.9999C153.05 51.9999 153.773 51.7013 154.28 51.3103C154.499 51.1425 154.951 51.4162 155.007 51.677C155.024 51.7566 155.066 51.7503 155.132 51.7402C155.158 51.7362 155.189 51.7316 155.223 51.7316H156.528C156.808 51.7316 157.024 51.4882 156.998 51.2248C156.975 50.9923 156.955 50.6903 156.955 50.3332V45.9973C156.955 44.2592 155.874 42.7359 153.031 42.7359C150.943 42.7359 149.557 43.8675 149.212 45.2172C149.159 45.4244 149.31 45.6208 149.53 45.6678L150.665 45.9108C150.925 45.9664 151.174 45.7908 151.261 45.5537C151.502 44.9045 152.105 44.4378 153.049 44.4378C154.263 44.4378 154.793 45.0294 154.793 45.7642C154.793 46.0687 154.643 46.3193 154.111 46.3916L151.741 46.732C150.168 46.9468 148.955 47.8065 148.955 49.366ZM151.154 49.24C151.154 49.8317 151.628 50.369 152.5 50.369C153.732 50.369 154.793 49.8139 154.793 48.112C154.793 47.9038 154.598 47.7446 154.382 47.7755L152.387 48.0574C151.703 48.1656 151.154 48.5237 151.154 49.24Z" fill="#5C2799"/>
</svg>
