<svg width="35" height="35" viewBox="0 0 35 35" fill="none" xmlns="http://www.w3.org/2000/svg">
<g clip-path="url(#clip0)">
<path d="M20.951 25.887C20.9089 25.8045 20.8448 25.7353 20.7657 25.687C20.6866 25.6388 20.5956 25.6136 20.503 25.614H16.586C16.5127 25.614 16.4404 25.63 16.374 25.661L9.117 29.027C9.03592 29.0631 8.96591 29.1202 8.91417 29.1923C8.86242 29.2644 8.8308 29.349 8.82255 29.4373C8.81431 29.5257 8.82973 29.6147 8.86724 29.6951C8.90475 29.7755 8.96299 29.8445 9.03599 29.895L14.849 34.043C14.9344 34.1044 15.0369 34.1373 15.142 34.137C15.1698 34.137 15.1976 34.1346 15.225 34.13C15.29 34.1199 15.3523 34.0969 15.4084 34.0626C15.4645 34.0283 15.5133 33.9832 15.552 33.93L20.913 26.417C20.9685 26.3412 21.0015 26.2512 21.0082 26.1575C21.0149 26.0638 20.9951 25.97 20.951 25.887Z" fill="#00723F"/>
<path d="M20.785 26.591L20.913 26.411C20.9692 26.336 21.0033 26.2467 21.0113 26.1533C21.0192 26.0599 21.0008 25.9662 20.958 25.8828C20.9153 25.7994 20.85 25.7297 20.7695 25.6816C20.6891 25.6336 20.5967 25.6091 20.503 25.6109H16.586C16.5127 25.6109 16.4404 25.6269 16.374 25.6579L9.117 29.0239C9.03592 29.06 8.96591 29.1171 8.91417 29.1892C8.86242 29.2613 8.8308 29.3459 8.82255 29.4342C8.81431 29.5226 8.82973 29.6116 8.86724 29.692C8.90475 29.7725 8.96299 29.8415 9.03599 29.8919L10.858 31.1919L20.785 26.591Z" fill="#006635"/>
<path d="M17.078 26.0089C17.0549 25.8956 16.9932 25.7939 16.9035 25.721C16.8138 25.648 16.7016 25.6084 16.586 25.6089H5.21C5.12498 25.6079 5.04109 25.6285 4.96628 25.669C4.89147 25.7094 4.8282 25.7682 4.78245 25.8399C4.7367 25.9115 4.70999 25.9937 4.70484 26.0786C4.69968 26.1634 4.71626 26.2482 4.753 26.3249L6.767 30.6669C6.79444 30.7273 6.83361 30.7816 6.88224 30.8266C6.93086 30.8717 6.98796 30.9067 7.05021 30.9295C7.11247 30.9522 7.17864 30.9624 7.24487 30.9594C7.3111 30.9564 7.37607 30.9403 7.436 30.9119L16.798 26.5699C16.9017 26.5224 16.9859 26.4408 17.0369 26.3388C17.0878 26.2367 17.1023 26.1203 17.078 26.0089Z" fill="#007C46"/>
<path d="M16.798 26.5749C16.9062 26.5297 16.995 26.448 17.049 26.344C17.103 26.24 17.1188 26.1203 17.0936 26.0058C17.0683 25.8914 17.0036 25.7894 16.9109 25.7178C16.8181 25.6461 16.7031 25.6094 16.586 25.6139H5.21C5.12498 25.6129 5.04109 25.6335 4.96628 25.674C4.89147 25.7144 4.8282 25.7732 4.78245 25.8449C4.7367 25.9165 4.70999 25.9987 4.70484 26.0836C4.69968 26.1684 4.71626 26.2532 4.753 26.3299L5.496 27.9299H13.871L16.798 26.5749Z" fill="#00723F"/>
<path d="M25.329 4.24196L19.515 0.0949568C19.4614 0.056489 19.4007 0.0290161 19.3364 0.014122C19.2721 -0.000772069 19.2055 -0.00279253 19.1404 0.00817693C19.0753 0.0191464 19.0131 0.0428888 18.9572 0.0780352C18.9014 0.113182 18.853 0.159037 18.815 0.212957L13.451 7.72496C13.3947 7.79992 13.3607 7.88919 13.3527 7.98257C13.3448 8.07595 13.3632 8.1697 13.406 8.2531C13.4487 8.33651 13.514 8.40623 13.5945 8.45429C13.6749 8.50236 13.7673 8.52684 13.861 8.52496H17.778C17.8512 8.52501 17.9236 8.50896 17.99 8.47796L25.247 5.11196C25.3281 5.07585 25.3981 5.01882 25.4498 4.94671C25.5016 4.8746 25.5332 4.79002 25.5414 4.70165C25.5497 4.61329 25.5343 4.52431 25.4967 4.44388C25.4592 4.36344 25.401 4.29444 25.328 4.24396L25.329 4.24196Z" fill="#00723F"/>
<path d="M17.99 8.47505L25.247 5.10905C25.3281 5.07294 25.3981 5.01591 25.4498 4.9438C25.5016 4.87169 25.5332 4.78711 25.5414 4.69875C25.5497 4.61038 25.5343 4.5214 25.4967 4.44097C25.4592 4.36053 25.401 4.29153 25.328 4.24105L23.484 2.92505L13.607 7.50605L13.451 7.72405C13.3947 7.79901 13.3607 7.88828 13.3527 7.98166C13.3448 8.07505 13.3632 8.16879 13.406 8.25219C13.4487 8.3356 13.514 8.40532 13.5945 8.45338C13.6749 8.50145 13.7673 8.52594 13.861 8.52405H17.778C17.8514 8.52328 17.9237 8.50656 17.99 8.47505Z" fill="#006635"/>
<path d="M29.612 7.80496L27.599 3.46296C27.5715 3.4026 27.5324 3.34831 27.4838 3.30324C27.4351 3.25817 27.378 3.22321 27.3158 3.20041C27.2535 3.17761 27.1873 3.16743 27.1211 3.17044C27.0549 3.17345 26.9899 3.1896 26.93 3.21796L17.57 7.55996C17.4618 7.60513 17.373 7.68686 17.319 7.79088C17.2649 7.8949 17.2492 8.01459 17.2744 8.12905C17.2997 8.2435 17.3643 8.34545 17.4571 8.41708C17.5499 8.48872 17.6649 8.52548 17.782 8.52096H29.158C29.243 8.52199 29.3269 8.50133 29.4017 8.46092C29.4765 8.4205 29.5398 8.36168 29.5855 8.29001C29.6313 8.21833 29.658 8.13617 29.6631 8.0513C29.6683 7.96643 29.6517 7.88164 29.615 7.80496H29.612Z" fill="#007C46"/>
<path d="M17.778 8.52206H29.154C29.239 8.52309 29.3229 8.50243 29.3977 8.46201C29.4725 8.4216 29.5358 8.36278 29.5815 8.29111C29.6273 8.21943 29.654 8.13727 29.6591 8.0524C29.6643 7.96753 29.6477 7.88274 29.611 7.80606L28.868 6.20605H20.493L17.57 7.56006C17.4618 7.60523 17.373 7.68696 17.319 7.79098C17.2649 7.89499 17.2492 8.01469 17.2744 8.12914C17.2997 8.2436 17.3643 8.34555 17.4571 8.41718C17.5499 8.48882 17.6649 8.52558 17.782 8.52106L17.778 8.52206Z" fill="#00723F"/>
<path d="M33.861 7.51392H0.5C0.367392 7.51392 0.240215 7.56659 0.146447 7.66036C0.0526784 7.75413 0 7.88131 0 8.01392L0 26.1139C0 26.2465 0.0526784 26.3737 0.146447 26.4675C0.240215 26.5612 0.367392 26.6139 0.5 26.6139H33.861C33.9936 26.6139 34.1208 26.5612 34.2146 26.4675C34.3083 26.3737 34.361 26.2465 34.361 26.1139V8.01392C34.361 7.88131 34.3083 7.75413 34.2146 7.66036C34.1208 7.56659 33.9936 7.51392 33.861 7.51392Z" fill="#008950"/>
<path d="M33.861 7.51392H32.046V26.6239H33.861C33.9936 26.6239 34.1208 26.5712 34.2145 26.4775C34.3083 26.3837 34.361 26.2565 34.361 26.1239V8.02392C34.3623 7.95742 34.3504 7.89133 34.3258 7.82951C34.3013 7.76768 34.2647 7.71137 34.2181 7.66388C34.1716 7.61639 34.116 7.57866 34.0547 7.55291C33.9933 7.52716 33.9275 7.5139 33.861 7.51392Z" fill="#007C46"/>
<path d="M31.359 13.003C30.6957 12.971 30.0669 12.6977 29.5911 12.2345C29.1152 11.7714 28.825 11.1502 28.775 10.488C28.775 10.3554 28.7223 10.2283 28.6286 10.1345C28.5348 10.0407 28.4076 9.98804 28.275 9.98804H5.82C5.68739 9.98804 5.56021 10.0407 5.46645 10.1345C5.37268 10.2283 5.32 10.3554 5.32 10.488C5.3314 11.1248 5.0984 11.7416 4.66893 12.2119C4.23946 12.6821 3.64615 12.9698 3.011 13.016C2.87839 13.016 2.75122 13.0687 2.65745 13.1625C2.56368 13.2563 2.511 13.3834 2.511 13.516V20.616C2.511 20.7487 2.56368 20.8758 2.65745 20.9696C2.75122 21.0634 2.87839 21.116 3.011 21.116C3.64615 21.1622 4.23946 21.45 4.66893 21.9202C5.0984 22.3904 5.3314 23.0073 5.32 23.644C5.32 23.7767 5.37268 23.9038 5.46645 23.9976C5.56021 24.0914 5.68739 24.144 5.82 24.144H28.271C28.4036 24.144 28.5308 24.0914 28.6246 23.9976C28.7183 23.9038 28.771 23.7767 28.771 23.644C28.821 22.9818 29.1112 22.3607 29.5871 21.8976C30.0629 21.4344 30.6917 21.1611 31.355 21.129C31.4876 21.129 31.6148 21.0764 31.7085 20.9826C31.8023 20.8888 31.855 20.7617 31.855 20.629V13.507C31.8555 13.4414 31.8431 13.3763 31.8185 13.3154C31.7938 13.2545 31.7574 13.1991 31.7114 13.1523C31.6653 13.1055 31.6105 13.0682 31.55 13.0426C31.4896 13.017 31.4247 13.0036 31.359 13.003Z" fill="#45BF7F"/>
<path d="M17.182 12.2629C16.2305 12.2629 15.3003 12.5451 14.5092 13.0737C13.718 13.6024 13.1014 14.3538 12.7372 15.2328C12.3731 16.1119 12.2778 17.0793 12.4634 18.0125C12.6491 18.9458 13.1073 19.803 13.7801 20.4758C14.4529 21.1487 15.3102 21.6069 16.2434 21.7925C17.1767 21.9781 18.144 21.8829 19.0231 21.5187C19.9022 21.1546 20.6536 20.5379 21.1822 19.7468C21.7109 18.9556 21.993 18.0255 21.993 17.0739C21.9914 15.7985 21.484 14.5757 20.5821 13.6738C19.6803 12.7719 18.4575 12.2645 17.182 12.2629Z" fill="#FFDF65"/>
<path d="M17.182 12.2629C16.8003 12.2631 16.4199 12.3087 16.049 12.3989C17.0976 12.6528 18.0304 13.2517 18.6976 14.0996C19.3647 14.9475 19.7274 15.9951 19.7274 17.0739C19.7274 18.1528 19.3647 19.2004 18.6976 20.0483C18.0304 20.8962 17.0976 21.4951 16.049 21.7489C16.71 21.9095 17.3975 21.9281 18.0661 21.8035C18.7348 21.6789 19.3695 21.414 19.9282 21.0261C20.487 20.6382 20.9571 20.1363 21.3077 19.5534C21.6582 18.9705 21.8812 18.3199 21.9619 17.6445C22.0426 16.9691 21.9791 16.2843 21.7757 15.6352C21.5723 14.9862 21.2336 14.3876 20.7819 13.8791C20.3302 13.3705 19.7758 12.9635 19.1553 12.685C18.5347 12.4064 17.8622 12.2625 17.182 12.2629Z" fill="#FFCD2C"/>
<path d="M31.359 13.003C30.6957 12.971 30.0669 12.6977 29.5911 12.2345C29.1152 11.7714 28.8249 11.1502 28.775 10.488C28.775 10.3554 28.7223 10.2283 28.6286 10.1345C28.5348 10.0407 28.4076 9.98804 28.275 9.98804H26.083C25.764 11.822 28.041 14.721 29.548 14.721V19.421C28.041 19.421 25.764 22.321 26.083 24.154H28.275C28.4076 24.154 28.5348 24.1014 28.6286 24.0076C28.7223 23.9138 28.775 23.7866 28.775 23.654C28.8249 22.9918 29.1152 22.3707 29.5911 21.9075C30.0669 21.4444 30.6957 21.1711 31.359 21.139C31.4916 21.139 31.6188 21.0864 31.7125 20.9926C31.8063 20.8988 31.859 20.7716 31.859 20.639V13.517C31.8609 13.4502 31.8493 13.3837 31.825 13.3214C31.8007 13.2591 31.7642 13.2023 31.7176 13.1544C31.671 13.1065 31.6152 13.0684 31.5536 13.0424C31.492 13.0164 31.4259 13.003 31.359 13.003Z" fill="#00B76C"/>
</g>
<defs>
<clipPath id="clip0">
<rect width="34.364" height="34.135" fill="white"/>
</clipPath>
</defs>
</svg>
