<svg width="25" height="25" viewBox="0 0 25 25" fill="none" xmlns="http://www.w3.org/2000/svg">
<path d="M19.921 2.89889C18.1071 1.34579 15.8734 0.365491 13.5023 0.0819804C11.1312 -0.20153 8.72929 0.224481 6.60034 1.30613C4.47139 2.38779 2.71102 4.0765 1.54188 6.15869C0.372736 8.24087 -0.152667 10.623 0.0321181 13.0038C0.216904 15.3846 1.10358 17.6572 2.58 19.534C4.05642 21.4109 6.05628 22.8077 8.32663 23.5479C10.597 24.2881 13.0359 24.3384 15.3348 23.6925C17.6337 23.0465 19.6895 21.7333 21.242 19.9189C22.2801 18.718 23.0699 17.3232 23.5657 15.8153C24.0615 14.3073 24.2535 12.716 24.1307 11.1334C24.0079 9.5508 23.5726 8.00822 22.85 6.59482C22.1275 5.18143 21.132 3.92525 19.921 2.89889ZM22.261 15.5719L18.571 14.2989C19.0643 12.8545 19.0643 11.2873 18.571 9.84289L22.256 8.57489C23.0298 10.8441 23.0298 13.3057 22.256 15.5749L22.261 15.5719ZM20.19 5.00589L17.253 7.55689C17.0328 7.30429 16.7945 7.06801 16.54 6.84989C15.6409 6.07862 14.5568 5.55415 13.394 5.32789L14.135 1.52189C15.9588 1.87311 17.6601 2.69221 19.072 3.89889C19.4707 4.24062 19.8444 4.61057 20.19 5.00589ZM8.40802 1.95289C8.93073 1.76483 9.46737 1.61805 10.013 1.51389L10.753 5.32889C9.25432 5.61946 7.8959 6.40304 6.89402 7.55489L3.95402 4.99889C5.15534 3.62113 6.68837 2.57272 8.40802 1.95289ZM1.88302 8.56889L5.57202 9.84089C5.07921 11.2853 5.07921 12.8524 5.57202 14.2969L1.88202 15.5669C1.10896 13.2976 1.10896 10.8362 1.88202 8.56689L1.88302 8.56889ZM3.94702 19.1419L6.89002 16.5849C7.11025 16.8375 7.34855 17.0738 7.60302 17.2919C8.50215 18.0632 9.58622 18.5876 10.749 18.8139L10 22.6419C8.17611 22.2857 6.47575 21.4626 5.06502 20.2529C4.66603 19.91 4.29239 19.5387 3.94702 19.1419ZM15.733 22.1989C15.2118 22.3865 14.6769 22.5336 14.133 22.6389L13.391 18.8119C14.8902 18.5213 16.249 17.7373 17.251 16.5849L20.192 19.1429C18.9899 20.5243 17.4551 21.5761 15.733 22.1989Z" fill="#F2BD0E"/>
<path d="M7.60303 5.00683C7.96256 5.00683 8.25403 4.71537 8.25403 4.35583C8.25403 3.9963 7.96256 3.70483 7.60303 3.70483C7.24349 3.70483 6.95203 3.9963 6.95203 4.35583C6.95203 4.71537 7.24349 5.00683 7.60303 5.00683Z" fill="#F2BD0E"/>
<path d="M3.156 12.7339C3.51554 12.7339 3.807 12.4424 3.807 12.0829C3.807 11.7233 3.51554 11.4319 3.156 11.4319C2.79647 11.4319 2.505 11.7233 2.505 12.0829C2.505 12.4424 2.79647 12.7339 3.156 12.7339Z" fill="#F2BD0E"/>
<path d="M7.62298 20.449C7.98252 20.449 8.27398 20.1575 8.27398 19.798C8.27398 19.4384 7.98252 19.147 7.62298 19.147C7.26345 19.147 6.97198 19.4384 6.97198 19.798C6.97198 20.1575 7.26345 20.449 7.62298 20.449Z" fill="#F2BD0E"/>
<path d="M16.54 20.439C16.9001 20.439 17.192 20.1471 17.192 19.787C17.192 19.4269 16.9001 19.135 16.54 19.135C16.1799 19.135 15.888 19.4269 15.888 19.787C15.888 20.1471 16.1799 20.439 16.54 20.439Z" fill="#F2BD0E"/>
<path d="M20.986 12.71C21.3456 12.71 21.637 12.4185 21.637 12.059C21.637 11.6994 21.3456 11.408 20.986 11.408C20.6265 11.408 20.335 11.6994 20.335 12.059C20.335 12.4185 20.6265 12.71 20.986 12.71Z" fill="#F2BD0E"/>
<path d="M16.519 4.99487C16.8785 4.99487 17.17 4.70341 17.17 4.34387C17.17 3.98433 16.8785 3.69287 16.519 3.69287C16.1594 3.69287 15.868 3.98433 15.868 4.34387C15.868 4.70341 16.1594 4.99487 16.519 4.99487Z" fill="#F2BD0E"/>
</svg>
