<svg width="32" height="28" viewBox="0 0 32 28" fill="none" xmlns="http://www.w3.org/2000/svg">
<path d="M28.2113 27.9992H2.7911C2.05138 27.9984 1.34218 27.7123 0.818975 27.2036C0.295769 26.6948 0.0012547 26.005 0 25.2854L0 6.45011C0.000836619 5.7302 0.295167 5.04001 0.818418 4.53096C1.34167 4.02191 2.05111 3.73557 2.7911 3.73475H11.599C11.6182 3.72604 11.638 3.71859 11.6583 3.71246L23.6208 0.0230485C23.6863 0.00284078 23.7553 -0.00418756 23.8236 0.00239212C23.8919 0.00897181 23.9582 0.0290214 24.0183 0.061319C24.0784 0.0936167 24.1311 0.137486 24.1732 0.190252C24.2154 0.243018 24.246 0.303576 24.2633 0.368234L25.1641 3.73091H28.2113C28.9513 3.73172 29.6607 4.01807 30.184 4.52712C30.7072 5.03617 31.0015 5.72636 31.0024 6.44627V25.2816C31.002 26.0018 30.7078 26.6925 30.1846 27.202C29.6613 27.7115 28.9516 27.9982 28.2113 27.9992ZM2.7911 4.71573C2.31952 4.71634 1.86744 4.89886 1.53398 5.22326C1.20053 5.54767 1.01291 5.98748 1.01229 6.44627V25.2816C1.01291 25.7403 1.20053 26.1801 1.53398 26.5046C1.86744 26.829 2.31952 27.0115 2.7911 27.0121H28.2113C28.6828 27.0115 29.1349 26.829 29.4684 26.5046C29.8018 26.1801 29.9895 25.7403 29.9901 25.2816V19.4388H20.5626C19.9716 19.438 19.4051 19.2092 18.9872 18.8027C18.5693 18.3961 18.3342 17.845 18.3334 17.27V14.4616C18.334 13.8864 18.5692 13.335 18.9872 12.9282C19.4053 12.5215 19.9722 12.2927 20.5634 12.2921H29.9877V6.44934C29.9879 5.99043 29.801 5.55017 29.468 5.22516C29.1349 4.90016 28.683 4.71695 28.2113 4.71573H2.7911ZM20.5626 13.2769C20.2398 13.2773 19.9303 13.4023 19.702 13.6244C19.4737 13.8465 19.3453 14.1476 19.3449 14.4616V17.27C19.3453 17.5841 19.4737 17.8852 19.702 18.1073C19.9303 18.3294 20.2398 18.4543 20.5626 18.4547H29.9877V13.2769H20.5626ZM14.9354 3.73168H24.1179L23.4177 1.1178L14.9354 3.73168ZM22.1755 17.616C21.8198 17.616 21.472 17.5134 21.1763 17.3211C20.8805 17.1288 20.65 16.8555 20.5138 16.5358C20.3777 16.2161 20.3421 15.8643 20.4115 15.5249C20.4809 15.1854 20.6522 14.8737 20.9037 14.6289C21.1552 14.3842 21.4757 14.2176 21.8246 14.1501C22.1735 14.0826 22.5351 14.1172 22.8638 14.2496C23.1924 14.3821 23.4733 14.6064 23.6709 14.8941C23.8686 15.1818 23.974 15.5201 23.974 15.8662C23.9734 16.3297 23.7841 16.774 23.4474 17.102C23.1108 17.4299 22.6543 17.6148 22.1779 17.616H22.1755ZM22.1755 15.1005C22.0192 15.1005 21.8664 15.1456 21.7365 15.2301C21.6065 15.3145 21.5052 15.4346 21.4454 15.5751C21.3856 15.7156 21.3699 15.8701 21.4004 16.0193C21.4309 16.1684 21.5062 16.3054 21.6167 16.4129C21.7272 16.5204 21.868 16.5936 22.0213 16.6233C22.1746 16.653 22.3335 16.6377 22.4779 16.5796C22.6223 16.5214 22.7457 16.4228 22.8325 16.2964C22.9194 16.17 22.9657 16.0213 22.9657 15.8693C22.9657 15.6658 22.8828 15.4706 22.7351 15.3265C22.5874 15.1824 22.387 15.1011 22.1779 15.1005H22.1755Z" fill="#EEEEEE"/>
</svg>
