<svg width="179" height="63" viewBox="0 0 179 63" fill="none" xmlns="http://www.w3.org/2000/svg">
<circle r="23.1037" transform="matrix(-0.493905 -0.869516 -0.869516 0.493905 31.5 31.5)" fill="#052CF7" fill-opacity="0.74"/>
<path d="M15.0493 28.8367L29.1264 46.9253L46.3401 33.529L34.9586 18.9042L32.2629 15.4404L16.0329 28.0712" stroke="white"/>
<path d="M23.0921 38.0269L22.9751 24.5383L39.0466 24.3989L39.1636 37.8875L23.0921 38.0269Z" fill="white"/>
<path d="M74.052 43.576C71.988 43.576 70.2 43.072 68.688 42.064C67.2 41.032 66.048 39.568 65.232 37.672C64.44 35.752 64.044 33.46 64.044 30.796C64.044 28.108 64.44 25.804 65.232 23.884C66.048 21.94 67.2 20.464 68.688 19.456C70.2 18.424 71.988 17.908 74.052 17.908C75.948 17.908 77.58 18.34 78.948 19.204C80.34 20.044 81.528 21.292 82.512 22.948L80.388 24.46C78.876 21.724 76.764 20.356 74.052 20.356C71.796 20.356 70.032 21.28 68.76 23.128C67.512 24.952 66.888 27.496 66.888 30.76C66.888 34 67.524 36.544 68.796 38.392C70.068 40.216 71.82 41.128 74.052 41.128C75.3 41.128 76.416 40.828 77.4 40.228C78.408 39.628 79.2 38.74 79.776 37.564C80.352 36.388 80.64 34.948 80.64 33.244H74.844V31.012H83.304V33.244C83.304 35.476 82.908 37.372 82.116 38.932C81.324 40.468 80.22 41.632 78.804 42.424C77.412 43.192 75.828 43.576 74.052 43.576ZM102.76 26.152V43H100.312V40.516C99.616 41.476 98.764 42.232 97.756 42.784C96.748 43.312 95.644 43.576 94.444 43.576C92.836 43.576 91.396 43.192 90.124 42.424C88.852 41.656 87.856 40.588 87.136 39.22C86.416 37.852 86.056 36.292 86.056 34.54C86.056 32.812 86.404 31.276 87.1 29.932C87.82 28.564 88.804 27.496 90.052 26.728C91.324 25.96 92.764 25.576 94.372 25.576C95.596 25.576 96.712 25.852 97.72 26.404C98.752 26.932 99.616 27.688 100.312 28.672V26.152H102.76ZM94.372 41.344C95.524 41.344 96.544 41.056 97.432 40.48C98.344 39.904 99.052 39.1 99.556 38.068C100.06 37.036 100.312 35.872 100.312 34.576C100.312 33.28 100.06 32.116 99.556 31.084C99.052 30.052 98.344 29.248 97.432 28.672C96.544 28.096 95.524 27.808 94.372 27.808C93.244 27.808 92.236 28.096 91.348 28.672C90.46 29.248 89.764 30.052 89.26 31.084C88.756 32.092 88.504 33.244 88.504 34.54C88.504 35.86 88.756 37.036 89.26 38.068C89.764 39.1 90.46 39.904 91.348 40.48C92.236 41.056 93.244 41.344 94.372 41.344ZM125.208 25.576C126.768 25.576 128.064 26.128 129.096 27.232C130.128 28.312 130.644 29.812 130.644 31.732V43H128.196V32.812C128.196 31.036 127.86 29.764 127.188 28.996C126.516 28.204 125.64 27.808 124.56 27.808C123.24 27.808 122.208 28.324 121.464 29.356C120.744 30.364 120.324 31.744 120.204 33.496V43H117.756V32.812C117.756 31.036 117.42 29.764 116.748 28.996C116.076 28.204 115.2 27.808 114.12 27.808C112.656 27.808 111.552 28.42 110.808 29.644C110.088 30.868 109.728 32.512 109.728 34.576V43H107.28V26.152H109.728V28.78C110.28 27.748 110.976 26.956 111.816 26.404C112.68 25.852 113.664 25.576 114.768 25.576C115.992 25.576 117.06 25.912 117.972 26.584C118.884 27.232 119.52 28.168 119.88 29.392C120.408 28.192 121.128 27.256 122.04 26.584C122.952 25.912 124.008 25.576 125.208 25.576ZM142.255 25.576C143.767 25.576 145.135 25.948 146.359 26.692C147.583 27.436 148.543 28.456 149.239 29.752C149.935 31.024 150.283 32.452 150.283 34.036C150.283 34.492 150.271 34.84 150.247 35.08H136.387C136.483 36.808 137.047 38.284 138.079 39.508C139.111 40.732 140.515 41.344 142.291 41.344C143.731 41.344 144.919 41.08 145.855 40.552C146.815 40 147.583 39.244 148.159 38.284L150.103 39.58C149.311 40.828 148.267 41.812 146.971 42.532C145.675 43.228 144.139 43.576 142.363 43.576C140.731 43.576 139.279 43.192 138.007 42.424C136.735 41.656 135.739 40.588 135.019 39.22C134.299 37.852 133.939 36.304 133.939 34.576C133.939 32.848 134.287 31.3 134.983 29.932C135.703 28.564 136.687 27.496 137.935 26.728C139.207 25.96 140.647 25.576 142.255 25.576ZM147.835 33.064C147.595 31.312 147.007 30.004 146.071 29.14C145.135 28.252 143.863 27.808 142.255 27.808C140.695 27.808 139.411 28.312 138.403 29.32C137.419 30.304 136.795 31.552 136.531 33.064H147.835ZM162.177 25.576C162.753 25.576 163.305 25.66 163.833 25.828V28.06C163.329 27.82 162.777 27.7 162.177 27.7C161.145 27.7 160.185 27.988 159.297 28.564C158.409 29.14 157.689 29.98 157.137 31.084C156.609 32.164 156.345 33.448 156.345 34.936V43H153.897V26.152H156.345V29.536C156.993 28.288 157.809 27.316 158.793 26.62C159.801 25.924 160.929 25.576 162.177 25.576ZM177.616 26.152V28.384L167.968 40.768H177.616V43H165.16V40.768L174.808 28.384H165.16V26.152H177.616Z" fill="white"/>
</svg>
