<svg width="31" height="28" viewBox="0 0 31 28" fill="none" xmlns="http://www.w3.org/2000/svg">
<g clip-path="url(#clip0)">
<path d="M30.9849 19.3647C30.8854 16.7662 30.6008 14.1874 30.1353 11.6653C29.7429 9.42023 29.1605 7.24614 28.4 5.18752C25.6971 -1.34349 22.7625 -0.33484 19.2487 0.939973C18.0827 1.37538 16.8954 1.69468 15.6961 1.89539H15.3097C14.1103 1.69468 12.9231 1.37538 11.7571 0.939973C8.24191 -0.283444 5.30736 -1.34349 2.60373 5.24075C1.82665 7.28932 1.2435 9.46627 0.868492 11.7185C0.402472 14.2405 0.117463 16.8193 0.0175585 19.4179C-0.117488 21.4669 0.0668091 23.532 0.558151 25.4753C0.716942 26.0389 0.96601 26.5461 1.28686 26.9592C1.60772 27.3723 1.99212 27.6807 2.41152 27.8616C3.24119 28.1257 4.11143 27.9963 4.88089 27.4945C6.71366 26.2763 8.38434 24.6428 9.82298 22.6623C11.0203 21.069 13.2594 20.276 15.4959 20.276C17.7323 20.276 19.9748 21.0727 21.1688 22.6623C22.6074 24.6428 24.2781 26.2763 26.1108 27.4945C26.8855 27.9705 27.7495 28.0989 28.5802 27.8616C29.0076 27.6803 29.3984 27.3649 29.7219 26.9402C30.0454 26.5156 30.2927 25.9934 30.4443 25.4147C30.9409 23.4757 31.1253 21.4114 30.9849 19.3647ZM29.1315 24.6741C29.0601 24.9774 28.9396 25.2544 28.779 25.4843C28.6184 25.7142 28.422 25.8909 28.2045 26.0012C27.6695 26.1367 27.1171 26.0441 26.6214 25.736C24.9519 24.6406 23.4358 23.1493 22.1425 21.3306C20.6742 19.3114 18.088 18.3018 15.5012 18.3018C12.9144 18.3018 10.3269 19.3114 8.82121 21.2223C7.52402 23.0347 6.00874 24.5251 4.3423 25.6277C3.85213 25.9621 3.29346 26.0557 2.75923 25.8929C2.54174 25.7826 2.34529 25.6059 2.1847 25.376C2.02412 25.1461 1.90359 24.8691 1.83222 24.5658C1.44992 22.9212 1.31837 21.186 1.44579 19.4684C1.53556 16.9953 1.80747 14.5411 2.25735 12.1435C2.61117 10.0564 3.15612 8.03952 3.87913 6.1411C6.00279 0.885823 8.47684 1.7357 11.4087 2.79759C12.6469 3.28137 13.9129 3.61912 15.1929 3.80716H15.7722C17.0654 3.62404 18.3445 3.28624 19.595 2.79759C22.5316 1.78801 25.001 0.885822 27.1246 6.14294C27.8538 8.03689 28.3991 10.0543 28.7464 12.1435C29.1803 14.5464 29.4517 16.9994 29.5573 19.4711C29.6888 21.2274 29.5436 23.002 29.1315 24.6741Z" fill="#EEEEEE"/>
<path d="M11.9487 9.0101C11.5722 8.50285 11.0825 8.18472 10.5585 8.10699C10.5157 7.40757 10.2972 6.75045 9.94045 6.24846L9.90174 6.19523C9.69568 5.90587 9.44924 5.67673 9.17721 5.52154C8.90518 5.36636 8.61317 5.28833 8.31867 5.29212C7.72565 5.29856 7.15779 5.6225 6.7356 6.19523C6.35985 6.70628 6.12729 7.38328 6.07888 8.10699C5.55881 8.16527 5.06859 8.46496 4.68869 8.95686L4.64998 9.0101C4.43957 9.29347 4.27294 9.63236 4.16009 10.0065C4.04724 10.3805 3.9905 10.7821 3.99326 11.1871C3.99794 12.0026 4.23351 12.7835 4.64998 13.3641C5.02644 13.9021 5.53681 14.2247 6.07888 14.2672C6.11013 14.9972 6.34545 15.6822 6.7356 16.179C6.94166 16.4683 7.1881 16.6975 7.46013 16.8527C7.73216 17.0078 8.02418 17.0859 8.31867 17.0821C8.91169 17.0756 9.47955 16.7517 9.90174 16.179C10.2706 15.6613 10.5019 14.9878 10.5585 14.2672C11.0893 14.2242 11.5874 13.9006 11.9487 13.3641C12.1591 13.0807 12.3257 12.7418 12.4385 12.3677C12.5514 11.9937 12.6081 11.5921 12.6054 11.1871C12.6007 10.3716 12.3651 9.59068 11.9487 9.0101ZM10.9836 11.9837C10.908 12.0884 10.8176 12.1707 10.7179 12.2255C10.6183 12.2802 10.5116 12.3064 10.4043 12.3022H9.8637C9.66899 12.3022 9.48226 12.4086 9.34459 12.5979C9.20691 12.7872 9.12956 13.044 9.12956 13.3118V14.002C9.12956 14.2977 9.04413 14.5813 8.89206 14.7905C8.73999 14.9996 8.53373 15.1171 8.31867 15.1171C8.10361 15.1171 7.89736 14.9996 7.74529 14.7905C7.59322 14.5813 7.50778 14.2977 7.50778 14.002V13.2586C7.50778 12.9908 7.43044 12.734 7.29276 12.5447C7.15508 12.3553 6.96835 12.249 6.77364 12.249H6.23305C6.07478 12.2545 5.91894 12.1946 5.78566 12.0771C5.65239 11.9596 5.5478 11.7898 5.48543 11.5897C5.42305 11.3896 5.40575 11.1683 5.43576 10.9545C5.46576 10.7408 5.5417 10.5443 5.65375 10.3905L5.69246 10.3372C5.84756 10.172 6.03693 10.0791 6.23305 10.072H6.77364C6.96835 10.072 7.15508 9.96561 7.29276 9.77628C7.43044 9.58695 7.50778 9.33016 7.50778 9.06241V8.319C7.50923 8.09841 7.55775 7.88327 7.64733 7.70027C7.7369 7.51728 7.86359 7.37449 8.01166 7.28964C8.15973 7.20479 8.32266 7.18161 8.48023 7.22298C8.63779 7.26435 8.78305 7.36846 8.89797 7.52236L8.93668 7.57559C9.05683 7.78888 9.1244 8.04929 9.12956 8.319V9.06241C9.12956 9.33016 9.20691 9.58695 9.34459 9.77628C9.48226 9.96561 9.66899 10.072 9.8637 10.072H10.4043C10.5647 10.074 10.7211 10.1407 10.8542 10.2639C10.9873 10.3871 11.0911 10.5613 11.1528 10.7649C11.2145 10.9685 11.2314 11.1926 11.2013 11.4093C11.1712 11.6259 11.0955 11.8257 10.9836 11.9837Z" fill="#EEEEEE"/>
<path d="M22.2201 9.27614C22.9665 9.27614 23.5716 8.44405 23.5716 7.41761C23.5716 6.39117 22.9665 5.55908 22.2201 5.55908C21.4737 5.55908 20.8687 6.39117 20.8687 7.41761C20.8687 8.44405 21.4737 9.27614 22.2201 9.27614Z" fill="#EEEEEE"/>
<path d="M22.2201 16.8159C22.9665 16.8159 23.5716 15.9838 23.5716 14.9574C23.5716 13.931 22.9665 13.0989 22.2201 13.0989C21.4737 13.0989 20.8687 13.931 20.8687 14.9574C20.8687 15.9838 21.4737 16.8159 22.2201 16.8159Z" fill="#EEEEEE"/>
<path d="M19.4784 13.0457C20.2248 13.0457 20.8299 12.2136 20.8299 11.1871C20.8299 10.1607 20.2248 9.32861 19.4784 9.32861C18.732 9.32861 18.127 10.1607 18.127 11.1871C18.127 12.2136 18.732 13.0457 19.4784 13.0457Z" fill="#EEEEEE"/>
<path d="M24.9613 13.0457C25.7077 13.0457 26.3128 12.2136 26.3128 11.1871C26.3128 10.1607 25.7077 9.32861 24.9613 9.32861C24.2149 9.32861 23.6099 10.1607 23.6099 11.1871C23.6099 12.2136 24.2149 13.0457 24.9613 13.0457Z" fill="#EEEEEE"/>
</g>
<defs>
<clipPath id="clip0">
<rect width="31" height="28" fill="white"/>
</clipPath>
</defs>
</svg>
