<svg width="31" height="28" viewBox="0 0 31 28" fill="none" xmlns="http://www.w3.org/2000/svg">
<g clip-path="url(#clip0)">
<path d="M30.6719 11.059L15.976 0.158228C15.8383 0.0566655 15.6724 0.00195312 15.5021 0.00195312C15.3318 0.00195312 15.1658 0.0566655 15.0281 0.158228L0.329976 11.059C0.157579 11.1869 0.0423779 11.3789 0.00971623 11.5929C-0.0229454 11.8068 0.0296075 12.0252 0.155814 12.1998C0.28202 12.3745 0.471542 12.4913 0.682687 12.5243C0.893831 12.5574 1.1093 12.5042 1.2817 12.3763L15.4998 1.8277L29.7178 12.3763C29.8902 12.5045 30.1058 12.558 30.3172 12.5252C30.5285 12.4923 30.7184 12.3757 30.8449 12.201C30.9714 12.0263 31.0242 11.8079 30.9918 11.5937C30.9593 11.3795 30.8443 11.1872 30.6719 11.059Z" fill="#EEEEEE"/>
<path d="M26.7762 12.5608C26.5626 12.5608 26.3578 12.6468 26.2068 12.7998C26.0557 12.9528 25.9709 13.1604 25.9709 13.3768V26.3671H19.5269V19.2762C19.5269 18.1938 19.1026 17.1557 18.3472 16.3904C17.5919 15.625 16.5674 15.195 15.4992 15.195C14.431 15.195 13.4066 15.625 12.6512 16.3904C11.8959 17.1557 11.4715 18.1938 11.4715 19.2762V26.3671H5.02833V13.3768C5.02833 13.1604 4.94349 12.9528 4.79247 12.7998C4.64144 12.6468 4.43661 12.5608 4.22303 12.5608C4.00945 12.5608 3.80462 12.6468 3.65359 12.7998C3.50257 12.9528 3.41772 13.1604 3.41772 13.3768V27.1839C3.41772 27.4003 3.50257 27.6079 3.65359 27.7609C3.80462 27.9139 4.00945 27.9999 4.22303 27.9999H12.2776C12.4803 27.9997 12.6754 27.9222 12.8241 27.7826C12.9728 27.6431 13.0641 27.4519 13.0798 27.2472C13.0809 27.2261 13.0809 27.205 13.0798 27.1839V19.2762C13.0798 18.6267 13.3345 18.0039 13.7877 17.5446C14.2409 17.0854 14.8556 16.8274 15.4965 16.8274C16.1375 16.8274 16.7522 17.0854 17.2054 17.5446C17.6586 18.0039 17.9132 18.6267 17.9132 19.2762V27.1839C17.9121 27.2047 17.9121 27.2256 17.9132 27.2464C17.9287 27.4513 18.02 27.6427 18.1687 27.7823C18.3174 27.922 18.5127 27.9997 18.7154 27.9999H26.7762C26.9898 27.9999 27.1946 27.9139 27.3456 27.7609C27.4967 27.6079 27.5815 27.4003 27.5815 27.1839V13.3768C27.5815 13.1604 27.4967 12.9528 27.3456 12.7998C27.1946 12.6468 26.9898 12.5608 26.7762 12.5608Z" fill="#EEEEEE"/>
</g>
<defs>
<clipPath id="clip0">
<rect width="31" height="28" fill="white"/>
</clipPath>
</defs>
</svg>
