<svg width="31" height="28" viewBox="0 0 31 28" fill="none" xmlns="http://www.w3.org/2000/svg">
<g clip-path="url(#clip0)">
<path d="M30.9847 19.3647C30.8853 16.7662 30.6007 14.1874 30.1351 11.6653C29.7427 9.42023 29.1603 7.24614 28.3999 5.18752C25.6969 -1.34349 22.7624 -0.33484 19.2485 0.939973C18.0826 1.37538 16.8953 1.69468 15.696 1.89539H15.3095C14.1102 1.69468 12.9229 1.37538 11.757 0.939973C8.24179 -0.283444 5.30724 -1.34349 2.60361 5.24075C1.82653 7.28932 1.24338 9.46627 0.86837 11.7185C0.40235 14.2405 0.117341 16.8193 0.0174364 19.4179C-0.11761 21.4669 0.066687 23.532 0.558029 25.4753C0.71682 26.0389 0.965888 26.5461 1.28674 26.9592C1.60759 27.3723 1.99199 27.6807 2.4114 27.8616C3.24107 28.1257 4.11131 27.9963 4.88077 27.4945C6.71354 26.2763 8.38422 24.6428 9.82286 22.6623C11.0202 21.069 13.2593 20.276 15.4957 20.276C17.7322 20.276 19.9747 21.0727 21.1686 22.6623C22.6073 24.6428 24.278 26.2763 26.1107 27.4945C26.8854 27.9705 27.7494 28.0989 28.5801 27.8616C29.0074 27.6803 29.3983 27.3649 29.7218 26.9402C30.0453 26.5156 30.2926 25.9934 30.4441 25.4147C30.9407 23.4757 31.1252 21.4114 30.9847 19.3647ZM29.1314 24.6741C29.06 24.9774 28.9395 25.2544 28.7789 25.4843C28.6183 25.7142 28.4218 25.8909 28.2044 26.0012C27.6693 26.1367 27.117 26.0441 26.6213 25.736C24.9518 24.6406 23.4356 23.1493 22.1424 21.3306C20.6741 19.3114 18.0879 18.3018 15.5011 18.3018C12.9142 18.3018 10.3267 19.3114 8.82109 21.2223C7.5239 23.0347 6.00861 24.5251 4.34218 25.6277C3.85201 25.9621 3.29334 26.0557 2.75911 25.8929C2.54161 25.7826 2.34517 25.6059 2.18458 25.376C2.024 25.1461 1.90347 24.8691 1.83209 24.5658C1.4498 22.9212 1.31825 21.186 1.44567 19.4684C1.53544 16.9953 1.80735 14.5411 2.25723 12.1435C2.61105 10.0564 3.156 8.03952 3.87901 6.1411C6.00267 0.885823 8.47672 1.7357 11.4086 2.79759C12.6468 3.28137 13.9128 3.61912 15.1927 3.80716H15.772C17.0652 3.62404 18.3444 3.28624 19.5949 2.79759C22.5315 1.78801 25.0008 0.885822 27.1245 6.14294C27.8537 8.03689 28.399 10.0543 28.7463 12.1435C29.1801 14.5464 29.4516 16.9994 29.5572 19.4711C29.6887 21.2274 29.5435 23.002 29.1314 24.6741Z" fill="#EEEEEE"/>
<path d="M11.9485 9.0101C11.5721 8.50285 11.0824 8.18472 10.5583 8.10699C10.5156 7.40757 10.2971 6.75045 9.94033 6.24846L9.90162 6.19523C9.69556 5.90587 9.44912 5.67673 9.17709 5.52154C8.90506 5.36636 8.61305 5.28833 8.31855 5.29212C7.72553 5.29856 7.15767 5.6225 6.73548 6.19523C6.35973 6.70628 6.12717 7.38328 6.07876 8.10699C5.55868 8.16527 5.06847 8.46496 4.68857 8.95686L4.64986 9.0101C4.43945 9.29347 4.27282 9.63236 4.15997 10.0065C4.04712 10.3805 3.99038 10.7821 3.99314 11.1871C3.99782 12.0026 4.23339 12.7835 4.64986 13.3641C5.02632 13.9021 5.53669 14.2247 6.07876 14.2672C6.11001 14.9972 6.34533 15.6822 6.73548 16.179C6.94154 16.4683 7.18798 16.6975 7.46001 16.8527C7.73204 17.0078 8.02406 17.0859 8.31855 17.0821C8.91157 17.0756 9.47943 16.7517 9.90162 16.179C10.2705 15.6613 10.5018 14.9878 10.5583 14.2672C11.0891 14.2242 11.5873 13.9006 11.9485 13.3641C12.1589 13.0807 12.3256 12.7418 12.4384 12.3677C12.5513 11.9937 12.608 11.5921 12.6053 11.1871C12.6006 10.3716 12.365 9.59068 11.9485 9.0101ZM10.9835 11.9837C10.9078 12.0884 10.8174 12.1707 10.7178 12.2255C10.6182 12.2802 10.5114 12.3064 10.4042 12.3022H9.86358C9.66887 12.3022 9.48214 12.4086 9.34446 12.5979C9.20679 12.7872 9.12944 13.044 9.12944 13.3118V14.002C9.12944 14.2977 9.04401 14.5813 8.89194 14.7905C8.73986 14.9996 8.53361 15.1171 8.31855 15.1171C8.10349 15.1171 7.89724 14.9996 7.74517 14.7905C7.59309 14.5813 7.50766 14.2977 7.50766 14.002V13.2586C7.50766 12.9908 7.43032 12.734 7.29264 12.5447C7.15496 12.3553 6.96823 12.249 6.77352 12.249H6.23293C6.07466 12.2545 5.91881 12.1946 5.78554 12.0771C5.65227 11.9596 5.54768 11.7898 5.48531 11.5897C5.42293 11.3896 5.40563 11.1683 5.43563 10.9545C5.46564 10.7408 5.54157 10.5443 5.65363 10.3905L5.69234 10.3372C5.84743 10.172 6.0368 10.0791 6.23293 10.072H6.77352C6.96823 10.072 7.15496 9.96561 7.29264 9.77628C7.43032 9.58695 7.50766 9.33016 7.50766 9.06241V8.319C7.5091 8.09841 7.55763 7.88327 7.6472 7.70027C7.73678 7.51728 7.86347 7.37449 8.01154 7.28964C8.15961 7.20479 8.32254 7.18161 8.4801 7.22298C8.63767 7.26435 8.78293 7.36846 8.89785 7.52236L8.93656 7.57559C9.05671 7.78888 9.12428 8.04929 9.12944 8.319V9.06241C9.12944 9.33016 9.20679 9.58695 9.34446 9.77628C9.48214 9.96561 9.66887 10.072 9.86358 10.072H10.4042C10.5646 10.074 10.721 10.1407 10.8541 10.2639C10.9872 10.3871 11.091 10.5613 11.1527 10.7649C11.2144 10.9685 11.2313 11.1926 11.2012 11.4093C11.1711 11.6259 11.0954 11.8257 10.9835 11.9837Z" fill="#EEEEEE"/>
<path d="M22.2199 9.27614C22.9663 9.27614 23.5714 8.44405 23.5714 7.41761C23.5714 6.39117 22.9663 5.55908 22.2199 5.55908C21.4735 5.55908 20.8684 6.39117 20.8684 7.41761C20.8684 8.44405 21.4735 9.27614 22.2199 9.27614Z" fill="#EEEEEE"/>
<path d="M22.2199 16.8159C22.9663 16.8159 23.5714 15.9838 23.5714 14.9574C23.5714 13.931 22.9663 13.0989 22.2199 13.0989C21.4735 13.0989 20.8684 13.931 20.8684 14.9574C20.8684 15.9838 21.4735 16.8159 22.2199 16.8159Z" fill="#EEEEEE"/>
<path d="M19.4782 13.0457C20.2246 13.0457 20.8297 12.2136 20.8297 11.1871C20.8297 10.1607 20.2246 9.32861 19.4782 9.32861C18.7318 9.32861 18.1267 10.1607 18.1267 11.1871C18.1267 12.2136 18.7318 13.0457 19.4782 13.0457Z" fill="#EEEEEE"/>
<path d="M24.9613 13.0457C25.7077 13.0457 26.3128 12.2136 26.3128 11.1871C26.3128 10.1607 25.7077 9.32861 24.9613 9.32861C24.2149 9.32861 23.6099 10.1607 23.6099 11.1871C23.6099 12.2136 24.2149 13.0457 24.9613 13.0457Z" fill="#EEEEEE"/>
</g>
<defs>
<clipPath id="clip0">
<rect width="31" height="28" fill="white"/>
</clipPath>
</defs>
</svg>
