<svg width="31" height="28" viewBox="0 0 31 28" fill="none" xmlns="http://www.w3.org/2000/svg">
<path d="M29.555 0H1.44502C1.06178 0 0.69423 0.140476 0.423236 0.390524C0.152243 0.640573 0 0.979711 0 1.33333L0 5.27467C0 5.62829 0.152243 5.96743 0.423236 6.21748C0.69423 6.46752 1.06178 6.608 1.44502 6.608H5.74251V11.9413C4.98459 12.7413 1.79833 16.2147 1.41323 18.5147C1.41083 18.5442 1.41083 18.5738 1.41323 18.6033V27.4033C1.41323 27.5605 1.4809 27.7113 1.60136 27.8224C1.72181 27.9336 1.88519 27.996 2.05554 27.996H9.8413C9.94484 27.9959 10.0468 27.9726 10.1385 27.9283C10.2302 27.884 10.309 27.8198 10.368 27.7413L13.6554 23.3767C13.6965 23.3205 13.7268 23.2583 13.745 23.1927C13.745 23.098 14.0853 22.0427 14.4675 20.5967H24.6152C24.7855 20.5967 24.9489 20.5342 25.0694 20.4231C25.1898 20.3119 25.2575 20.1612 25.2575 20.004V6.60867H29.555C29.9382 6.60867 30.3058 6.46819 30.5768 6.21814C30.8478 5.96809 31 5.62896 31 5.27533V1.33333C31 1.15824 30.9626 0.984856 30.89 0.823089C30.8174 0.661322 30.7109 0.514336 30.5768 0.390524C30.4426 0.266713 30.2833 0.1685 30.108 0.101494C29.9326 0.0344879 29.7447 0 29.555 0ZM14.4979 14.296C14.0242 17.1561 13.37 19.9883 12.5384 22.778L9.50028 26.8087H2.69135V18.6753C2.94206 17.324 4.50918 15.2493 5.74251 13.8207V20.0027C5.74251 20.1599 5.81018 20.3106 5.93064 20.4217C6.05109 20.5329 6.21447 20.5953 6.38482 20.5953H8.70407C8.78324 20.5948 8.86163 20.5808 8.93528 20.554L9.00753 20.5187C9.05358 20.4977 9.09675 20.4717 9.13614 20.4413L9.19394 20.382C9.2238 20.3491 9.24972 20.3134 9.27124 20.2753L9.30954 20.198V20.1567C9.95185 17.9633 11.3521 14.176 12.412 13.3347C13.1345 12.742 13.5492 12.6767 13.7291 12.6767C13.796 12.6753 13.8623 12.6885 13.9226 12.7153C13.9828 12.742 14.0354 12.7816 14.0759 12.8307C14.3902 13.2618 14.5388 13.7778 14.4979 14.296ZM23.9729 19.4133H14.7746C15.1727 17.8073 15.5773 15.958 15.7767 14.4407C15.856 13.5957 15.5992 12.753 15.0542 12.07C14.8953 11.8987 14.6984 11.7608 14.4767 11.6657C14.2551 11.5706 14.014 11.5204 13.7696 11.5187C12.9514 11.5853 12.1859 11.9196 11.6115 12.4613C10.1151 13.644 8.69107 17.9653 8.23661 19.4353H7.02713V3.924H23.9729V19.4133ZM29.7154 5.27133C29.7154 5.31059 29.6985 5.34823 29.6684 5.37599C29.6383 5.40374 29.5975 5.41933 29.555 5.41933H25.2575V3.924H26.42C26.5904 3.924 26.7537 3.86156 26.8742 3.75041C26.9946 3.63927 27.0623 3.48852 27.0623 3.33133C27.0623 3.17415 26.9946 3.0234 26.8742 2.91226C26.7537 2.80111 26.5904 2.73867 26.42 2.73867H4.57999C4.40964 2.73867 4.24626 2.80111 4.12581 2.91226C4.00535 3.0234 3.93768 3.17415 3.93768 3.33133C3.93768 3.48852 4.00535 3.63927 4.12581 3.75041C4.24626 3.86156 4.40964 3.924 4.57999 3.924H5.74901V5.44733H1.44502C1.40248 5.44733 1.36168 5.43174 1.3316 5.40399C1.30152 5.37623 1.28462 5.33859 1.28462 5.29933V1.33333C1.28462 1.29408 1.30152 1.25644 1.3316 1.22868C1.36168 1.20093 1.40248 1.18533 1.44502 1.18533H29.555C29.5975 1.18533 29.6383 1.20093 29.6684 1.22868C29.6985 1.25644 29.7154 1.29408 29.7154 1.33333V5.27133Z" fill="#EEEEEE"/>
</svg>
